<svg width="1080" height="1080" viewBox="0 0 1080 1080" fill="none" xmlns="http://www.w3.org/2000/svg">
<path d="M159.684 581.9H168.297V590.513H159.684V581.9Z" fill="#FF3D51"/>
<path d="M172.603 581.9H181.217V590.513H172.603V581.9Z" fill="#FF3D51"/>
<path d="M159.684 594.82H168.297V603.434H159.684V594.82Z" fill="#FF3D51"/>
<path d="M172.603 594.82H181.217V603.434H172.603V594.82Z" fill="#FF3D51"/>
<path d="M182.756 477L182.756 501.61L144.611 501.61V477L182.756 477Z" fill="#FF3D51"/>
<path d="M196.292 511.762H220.902V516.991L208.904 529.296H196.292V511.762Z" fill="#FF3D51"/>
<path d="M220.902 511.762C220.902 487.767 205.367 477 182.756 477L182.756 501.61C188.909 501.61 196.292 504.532 196.292 511.762H220.902Z" fill="#FF3D51"/>
<path d="M220.902 516.991C220.902 523.787 215.393 529.296 208.597 529.296C201.801 529.296 196.292 523.787 196.292 516.991C196.292 510.195 201.801 504.686 208.597 504.686C215.393 504.686 220.902 510.195 220.902 516.991Z" fill="#FF3D51"/>
<path d="M144.611 477V501.61H131.998L120.001 489.613L120.001 477L144.611 477Z" fill="#FF3D51"/>
<path d="M132.306 501.61C125.51 501.61 120.001 496.101 120.001 489.305C120.001 482.509 125.51 477 132.306 477C139.102 477 144.611 482.509 144.611 489.305C144.611 496.101 139.102 501.61 132.306 501.61Z" fill="#FF3D51"/>
<mask id="mask0_461_1608" style="mask-type:alpha" maskUnits="userSpaceOnUse" x="120" y="477" width="101" height="53">
<path d="M182.755 477L182.755 501.61L144.61 501.61V477L182.755 477Z" fill="#FF3D51"/>
<path d="M196.291 511.762H220.901V516.991L208.903 529.296H196.291V511.762Z" fill="#FF3D51"/>
<path d="M220.901 511.762C220.901 487.767 205.366 477 182.755 477L182.755 501.61C188.908 501.61 196.291 504.532 196.291 511.762H220.901Z" fill="#FF3D51"/>
<path d="M220.901 516.991C220.901 523.787 215.392 529.296 208.596 529.296C201.8 529.296 196.291 523.787 196.291 516.991C196.291 510.195 201.8 504.686 208.596 504.686C215.392 504.686 220.901 510.195 220.901 516.991Z" fill="#FF3D51"/>
<path d="M144.61 477V501.61H131.997L120 489.613L120 477L144.61 477Z" fill="#FF3D51"/>
<path d="M132.305 501.61C125.509 501.61 120 496.101 120 489.305C120 482.509 125.509 477 132.305 477C139.101 477 144.61 482.509 144.61 489.305C144.61 496.101 139.101 501.61 132.305 501.61Z" fill="#FF3D51"/>
</mask>
<g mask="url(#mask0_461_1608)">
<g filter="url(#filter0_f_461_1608)">
<rect x="120" y="480.414" width="100.942" height="24.695" fill="#FB122A"/>
</g>
</g>
<mask id="mask1_461_1608" style="mask-type:alpha" maskUnits="userSpaceOnUse" x="120" y="477" width="101" height="53">
<path d="M182.755 477L182.755 501.61L144.61 501.61V477L182.755 477Z" fill="#FF3D51"/>
<path d="M196.291 511.762H220.901V516.991L208.903 529.296H196.291V511.762Z" fill="#FF3D51"/>
<path d="M220.901 511.762C220.901 487.767 205.366 477 182.755 477L182.755 501.61C188.908 501.61 196.291 504.532 196.291 511.762H220.901Z" fill="#FF3D51"/>
<path d="M220.901 516.991C220.901 523.787 215.392 529.296 208.596 529.296C201.8 529.296 196.291 523.787 196.291 516.991C196.291 510.195 201.8 504.686 208.596 504.686C215.392 504.686 220.901 510.195 220.901 516.991Z" fill="#FF3D51"/>
<path d="M144.61 477V501.61H131.997L120 489.613L120 477L144.61 477Z" fill="#FF3D51"/>
<path d="M132.305 501.61C125.509 501.61 120 496.101 120 489.305C120 482.509 125.509 477 132.305 477C139.101 477 144.61 482.509 144.61 489.305C144.61 496.101 139.101 501.61 132.305 501.61Z" fill="#FF3D51"/>
</mask>
<g mask="url(#mask1_461_1608)">
<rect x="120.001" y="477" width="100.942" height="24.695" fill="#FF3D51"/>
</g>
<path d="M196.291 568.672H220.901V590.513H196.291V568.672Z" fill="#760D9D"/>
<path d="M120 536.372H144.61V590.513H120V536.372Z" fill="#760D9D"/>
<path d="M170.466 518.061L187.868 535.463L137.402 585.929L120 568.527L170.466 518.061Z" fill="#760D9D"/>
<path d="M220.931 568.527L203.529 585.929L153.183 535.583L170.585 518.182L220.931 568.527Z" fill="#760D9D"/>
<path d="M144.61 578.824H120V591.129L131.997 603.434H144.61V578.824Z" fill="#760D9D"/>
<path d="M120 591.129C120 597.925 125.509 603.434 132.305 603.434C139.101 603.434 144.61 597.925 144.61 591.129C144.61 584.333 139.101 578.824 132.305 578.824C125.509 578.824 120 584.333 120 591.129Z" fill="#760D9D"/>
<path d="M144.61 536.372H120L120 523.759L131.997 511.762L144.61 511.762L144.61 536.372Z" fill="#760D9D"/>
<path d="M120 524.067C120 517.271 125.509 511.762 132.305 511.762C139.101 511.762 144.61 517.271 144.61 524.067C144.61 530.862 139.101 536.372 132.305 536.372C125.509 536.372 120 530.862 120 524.067Z" fill="#760D9D"/>
<path d="M196.291 578.824L220.901 578.824V591.436L208.904 603.434H196.291L196.291 578.824Z" fill="#760D9D"/>
<path d="M220.901 591.129C220.901 597.925 215.392 603.434 208.596 603.434C201.8 603.434 196.291 597.925 196.291 591.129C196.291 584.333 201.8 578.824 208.596 578.824C215.392 578.824 220.901 584.333 220.901 591.129Z" fill="#760D9D"/>
<mask id="mask2_461_1608" style="mask-type:alpha" maskUnits="userSpaceOnUse" x="120" y="511" width="101" height="93">
<path d="M196.291 568.672H220.901V590.513H196.291V568.672Z" fill="#760D9D"/>
<path d="M120 536.372H144.61V590.513H120V536.372Z" fill="#760D9D"/>
<path d="M170.466 518.061L187.868 535.463L137.402 585.929L120 568.527L170.466 518.061Z" fill="#760D9D"/>
<path d="M220.931 568.527L203.529 585.929L153.183 535.583L170.585 518.182L220.931 568.527Z" fill="#760D9D"/>
<path d="M144.61 578.824H120V591.129L131.997 603.434H144.61V578.824Z" fill="#760D9D"/>
<path d="M120 591.129C120 597.925 125.509 603.434 132.305 603.434C139.101 603.434 144.61 597.925 144.61 591.129C144.61 584.333 139.101 578.824 132.305 578.824C125.509 578.824 120 584.333 120 591.129Z" fill="#760D9D"/>
<path d="M144.61 536.372H120L120 523.759L131.997 511.762L144.61 511.762L144.61 536.372Z" fill="#760D9D"/>
<path d="M120 524.067C120 517.271 125.509 511.762 132.305 511.762C139.101 511.762 144.61 517.271 144.61 524.067C144.61 530.862 139.101 536.372 132.305 536.372C125.509 536.372 120 530.862 120 524.067Z" fill="#760D9D"/>
<path d="M196.291 578.824L220.901 578.824V591.436L208.904 603.434H196.291L196.291 578.824Z" fill="#760D9D"/>
<path d="M220.901 591.129C220.901 597.925 215.392 603.434 208.596 603.434C201.8 603.434 196.291 597.925 196.291 591.129C196.291 584.333 201.8 578.824 208.596 578.824C215.392 578.824 220.901 584.333 220.901 591.129Z" fill="#760D9D"/>
</mask>
<g mask="url(#mask2_461_1608)">
<g filter="url(#filter1_f_461_1608)">
<path d="M194.016 566.418H218.625V588.259H194.016V566.418Z" fill="#69048E"/>
<path d="M117.725 566.273L142.335 541.663L142.335 589.688H117.725L117.725 566.273Z" fill="#69048E"/>
<path d="M168.191 515.806L185.593 533.208L135.126 583.675L117.725 566.273L168.191 515.806Z" fill="#69048E"/>
<path d="M218.656 566.273L201.254 583.675L150.908 533.329L168.31 515.927L218.656 566.273Z" fill="#69048E"/>
<path d="M142.335 576.569H117.725V588.874L129.722 601.179H142.335V576.569Z" fill="#69048E"/>
<path d="M117.725 588.874C117.725 595.67 123.234 601.179 130.03 601.179C136.825 601.179 142.335 595.67 142.335 588.874C142.335 582.078 136.825 576.569 130.03 576.569C123.234 576.569 117.725 582.078 117.725 588.874Z" fill="#69048E"/>
<path d="M194.016 576.569H218.625V589.182L206.628 601.179H194.016L194.016 576.569Z" fill="#69048E"/>
<path d="M218.625 588.874C218.625 595.67 213.116 601.179 206.32 601.179C199.525 601.179 194.016 595.67 194.016 588.874C194.016 582.078 199.525 576.569 206.321 576.569C213.116 576.569 218.625 582.078 218.625 588.874Z" fill="#69048E"/>
</g>
</g>
<path d="M196.291 568.694H220.901V590.535H196.291V568.694Z" fill="#760D9D"/>
<path d="M120 568.549L144.61 543.939L144.61 591.964H120L120 568.549Z" fill="#760D9D"/>
<path d="M170.466 518.082L187.868 535.484L137.402 585.951L120 568.549L170.466 518.082Z" fill="#760D9D"/>
<path d="M220.931 568.549L203.529 585.951L153.183 535.605L170.585 518.203L220.931 568.549Z" fill="#760D9D"/>
<path d="M144.61 578.845H120V591.15L131.997 603.455H144.61V578.845Z" fill="#760D9D"/>
<path d="M120 591.15C120 597.946 125.509 603.455 132.305 603.455C139.101 603.455 144.61 597.946 144.61 591.15C144.61 584.354 139.101 578.845 132.305 578.845C125.509 578.845 120 584.354 120 591.15Z" fill="#760D9D"/>
<path d="M196.291 578.845H220.901V591.458L208.904 603.455H196.291L196.291 578.845Z" fill="#760D9D"/>
<path d="M220.901 591.15C220.901 597.946 215.392 603.455 208.596 603.455C201.8 603.455 196.291 597.946 196.291 591.15C196.291 584.354 201.8 578.845 208.596 578.845C215.392 578.845 220.901 584.354 220.901 591.15Z" fill="#760D9D"/>
<path d="M313.889 561.023C313.799 563.175 312.947 564.924 311.332 566.27C309.718 567.615 307.834 568.288 305.681 568.288H261.281C262.358 573.58 264.824 577.751 268.681 580.801C272.538 583.761 276.889 585.241 281.732 585.241C285.41 585.241 288.28 584.927 290.343 584.299C292.406 583.581 294.021 582.864 295.187 582.146C296.443 581.339 297.295 580.801 297.743 580.532C299.358 579.724 300.882 579.321 302.318 579.321C304.201 579.321 305.816 579.994 307.161 581.339C308.507 582.684 309.179 584.254 309.179 586.048C309.179 588.47 307.924 590.667 305.412 592.641C302.901 594.704 299.537 596.453 295.321 597.888C291.106 599.323 286.845 600.041 282.54 600.041C275.005 600.041 268.412 598.471 262.761 595.332C257.2 592.192 252.895 587.887 249.845 582.415C246.795 576.854 245.271 570.62 245.271 563.714C245.271 556 246.885 549.228 250.114 543.397C253.343 537.567 257.604 533.127 262.896 530.077C268.188 526.938 273.839 525.368 279.849 525.368C285.769 525.368 291.33 526.983 296.532 530.212C301.824 533.441 306.04 537.791 309.179 543.263C312.319 548.734 313.889 554.654 313.889 561.023ZM279.849 540.168C269.444 540.168 263.3 545.057 261.416 554.834H296.667V553.892C296.308 550.125 294.469 546.895 291.15 544.205C287.832 541.514 284.064 540.168 279.849 540.168Z" fill="#182B40"/>
<path d="M362.066 583.492C363.322 583.492 364.443 584.12 365.43 585.375C366.506 586.541 367.044 588.111 367.044 590.084C367.044 592.506 365.699 594.569 363.008 596.274C360.407 597.888 357.447 598.695 354.128 598.695C348.567 598.695 343.858 597.529 340.001 595.197C336.234 592.775 334.35 587.707 334.35 579.994V542.859H328.161C326.008 542.859 324.214 542.142 322.779 540.706C321.344 539.271 320.626 537.477 320.626 535.325C320.626 533.262 321.344 531.557 322.779 530.212C324.214 528.777 326.008 528.059 328.161 528.059H334.35V519.448C334.35 517.116 335.112 515.188 336.637 513.663C338.252 512.048 340.225 511.241 342.557 511.241C344.8 511.241 346.683 512.048 348.208 513.663C349.733 515.188 350.495 517.116 350.495 519.448V528.059H360.048C362.201 528.059 363.995 528.777 365.43 530.212C366.865 531.647 367.583 533.441 367.583 535.594C367.583 537.657 366.865 539.406 365.43 540.841C363.995 542.186 362.201 542.859 360.048 542.859H350.495V579.321C350.495 581.204 350.989 582.595 351.975 583.492C352.962 584.299 354.307 584.703 356.012 584.703C356.729 584.703 357.716 584.523 358.972 584.164C360.048 583.716 361.08 583.492 362.066 583.492Z" fill="#182B40"/>
<path d="M440.665 525.368C442.997 525.368 444.925 526.131 446.45 527.655C447.975 529.18 448.737 531.154 448.737 533.575V590.488C448.737 592.82 447.975 594.794 446.45 596.408C444.925 597.933 442.997 598.695 440.665 598.695C438.333 598.695 436.404 597.933 434.879 596.408C433.444 594.883 432.682 592.955 432.592 590.623C430.35 593.224 427.3 595.466 423.443 597.35C419.676 599.144 415.684 600.041 411.468 600.041C405.279 600.041 399.673 598.471 394.65 595.332C389.627 592.103 385.636 587.663 382.676 582.012C379.805 576.361 378.37 569.948 378.37 562.772C378.37 555.596 379.805 549.183 382.676 543.532C385.546 537.791 389.448 533.351 394.381 530.212C399.404 526.983 404.921 525.368 410.93 525.368C415.236 525.368 419.272 526.175 423.039 527.79C426.807 529.315 429.991 531.288 432.592 533.71V533.575C432.592 531.243 433.354 529.315 434.879 527.79C436.404 526.175 438.333 525.368 440.665 525.368ZM413.487 585.241C419.317 585.241 424.071 583.133 427.748 578.917C431.426 574.612 433.265 569.23 433.265 562.772C433.265 556.314 431.426 550.932 427.748 546.626C424.071 542.321 419.317 540.168 413.487 540.168C407.746 540.168 403.037 542.321 399.359 546.626C395.682 550.932 393.843 556.314 393.843 562.772C393.843 569.23 395.637 574.612 399.225 578.917C402.902 583.133 407.656 585.241 413.487 585.241Z" fill="#182B40"/>
<path d="M504.715 525.368C513.864 525.368 520.187 528.104 523.685 533.575C527.184 538.957 528.933 546.447 528.933 556.045V590.488C528.933 592.82 528.17 594.794 526.645 596.408C525.121 597.933 523.192 598.695 520.86 598.695C518.528 598.695 516.599 597.933 515.074 596.408C513.55 594.794 512.787 592.82 512.787 590.488V556.045C512.787 551.111 511.756 547.254 509.693 544.474C507.63 541.603 504.087 540.168 499.064 540.168C493.861 540.168 489.78 541.693 486.82 544.743C483.86 547.703 482.38 551.47 482.38 556.045V590.488C482.38 592.82 481.618 594.794 480.093 596.408C478.568 597.933 476.639 598.695 474.307 598.695C471.975 598.695 470.047 597.933 468.522 596.408C466.997 594.794 466.235 592.82 466.235 590.488V534.921C466.235 532.589 466.997 530.66 468.522 529.135C470.047 527.521 471.975 526.714 474.307 526.714C476.639 526.714 478.568 527.521 480.093 529.135C481.618 530.66 482.38 532.589 482.38 534.921V537.208C484.802 533.979 487.941 531.199 491.798 528.866C495.745 526.534 500.05 525.368 504.715 525.368Z" fill="#182B40"/>
<path d="M561.587 590.488C561.587 592.82 560.825 594.794 559.3 596.408C557.775 597.933 555.847 598.695 553.514 598.695C551.182 598.695 549.254 597.933 547.729 596.408C546.204 594.794 545.442 592.82 545.442 590.488V534.921C545.442 532.589 546.204 530.66 547.729 529.135C549.254 527.521 551.182 526.714 553.514 526.714C555.847 526.714 557.775 527.521 559.3 529.135C560.825 530.66 561.587 532.589 561.587 534.921V590.488ZM553.38 517.968C550.33 517.968 548.177 517.475 546.922 516.488C545.666 515.502 545.038 513.752 545.038 511.241V508.685C545.038 506.173 545.711 504.424 547.056 503.437C548.402 502.451 550.554 501.957 553.514 501.957C556.654 501.957 558.851 502.451 560.107 503.437C561.363 504.424 561.991 506.173 561.991 508.685V511.241C561.991 513.842 561.318 515.636 559.973 516.623C558.717 517.52 556.519 517.968 553.38 517.968Z" fill="#182B40"/>
<path d="M636.438 525.368C638.77 525.368 640.699 526.131 642.224 527.655C643.749 529.18 644.511 531.154 644.511 533.575V590.488C644.511 592.82 643.749 594.794 642.224 596.408C640.699 597.933 638.77 598.695 636.438 598.695C634.106 598.695 632.178 597.933 630.653 596.408C629.218 594.883 628.455 592.955 628.366 590.623C626.123 593.224 623.074 595.466 619.217 597.35C615.449 599.144 611.458 600.041 607.242 600.041C601.053 600.041 595.447 598.471 590.424 595.332C585.401 592.103 581.409 587.663 578.449 582.012C575.579 576.361 574.144 569.948 574.144 562.772C574.144 555.596 575.579 549.183 578.449 543.532C581.32 537.791 585.222 533.351 590.155 530.212C595.178 526.983 600.694 525.368 606.704 525.368C611.009 525.368 615.046 526.175 618.813 527.79C622.58 529.315 625.764 531.288 628.366 533.71V533.575C628.366 531.243 629.128 529.315 630.653 527.79C632.178 526.175 634.106 525.368 636.438 525.368ZM609.26 585.241C615.091 585.241 619.844 583.133 623.522 578.917C627.2 574.612 629.038 569.23 629.038 562.772C629.038 556.314 627.2 550.932 623.522 546.626C619.844 542.321 615.091 540.168 609.26 540.168C603.52 540.168 598.811 542.321 595.133 546.626C591.455 550.932 589.617 556.314 589.617 562.772C589.617 569.23 591.411 574.612 594.998 578.917C598.676 583.133 603.43 585.241 609.26 585.241Z" fill="#182B40"/>
<path d="M735.47 584.703C736.008 585.42 736.457 586.317 736.815 587.394C737.174 588.38 737.354 589.322 737.354 590.219C737.354 592.641 736.412 594.659 734.528 596.274C732.734 597.888 730.626 598.695 728.204 598.695C727.038 598.695 725.917 598.426 724.841 597.888C723.764 597.35 722.868 596.587 722.15 595.601L692.954 557.121L680.172 569.364V590.488C680.172 592.91 679.365 594.883 677.75 596.408C676.225 597.933 674.207 598.695 671.696 598.695C669.274 598.695 667.256 597.933 665.641 596.408C664.116 594.794 663.354 592.82 663.354 590.488V512.721C663.354 510.389 664.161 508.46 665.776 506.936C667.39 505.321 669.453 504.514 671.965 504.514C674.386 504.514 676.36 505.276 677.885 506.801C679.409 508.326 680.172 510.299 680.172 512.721V549.317L723.226 506.936C725.289 504.873 727.487 503.841 729.819 503.841C731.882 503.841 733.631 504.693 735.066 506.397C736.501 508.102 737.219 509.896 737.219 511.779C737.219 513.663 736.412 515.412 734.797 517.026L705.466 545.012L735.47 584.703Z" fill="#182B40"/>
<path d="M851.156 587.528C850.349 586.452 849.945 585.106 849.945 583.492C849.945 581.16 851.111 579.186 853.443 577.572C854.699 576.764 856 576.361 857.345 576.361C859.229 576.361 861.023 577.213 862.727 578.917C865.418 581.698 868.199 583.761 871.069 585.106C874.029 586.452 877.572 587.124 881.698 587.124C888.694 586.855 892.192 584.209 892.192 579.186C892.192 576.585 890.982 574.612 888.56 573.266C886.228 571.921 882.55 570.575 877.527 569.23C872.325 567.795 868.064 566.36 864.745 564.924C861.516 563.489 858.691 561.337 856.269 558.466C853.937 555.506 852.771 551.56 852.771 546.626C852.771 542.321 853.982 538.598 856.403 535.459C858.915 532.23 862.144 529.763 866.091 528.059C870.127 526.265 874.388 525.368 878.873 525.368C883.447 525.368 888.022 526.22 892.596 527.925C897.171 529.629 900.759 532.14 903.36 535.459C904.526 536.894 905.109 538.509 905.109 540.303C905.109 542.366 904.257 544.07 902.552 545.415C901.297 546.402 899.862 546.895 898.247 546.895C896.274 546.895 894.659 546.268 893.403 545.012C891.789 543.038 889.681 541.469 887.08 540.303C884.568 539.137 881.698 538.554 878.469 538.554C871.652 538.554 868.243 541.02 868.243 545.954C868.243 547.927 868.871 549.541 870.127 550.797C871.383 551.963 872.953 552.905 874.836 553.623C876.809 554.251 879.545 555.058 883.043 556.045C887.887 557.39 891.923 558.78 895.152 560.215C898.382 561.651 901.117 563.848 903.36 566.808C905.602 569.768 906.723 573.67 906.723 578.514C906.723 582.909 905.423 586.766 902.822 590.084C900.22 593.314 896.857 595.78 892.731 597.484C888.694 599.189 884.523 600.041 880.218 600.041C874.298 600.041 868.782 599.054 863.669 597.081C858.556 595.107 854.385 591.923 851.156 587.528Z" fill="#182B40"/>
<path d="M954.947 583.492C956.203 583.492 957.324 584.12 958.311 585.375C959.387 586.541 959.925 588.111 959.925 590.084C959.925 592.506 958.58 594.569 955.889 596.274C953.288 597.888 950.328 598.695 947.009 598.695C941.448 598.695 936.739 597.529 932.882 595.197C929.115 592.775 927.231 587.707 927.231 579.994V542.859H921.042C918.889 542.859 917.095 542.142 915.66 540.706C914.225 539.271 913.507 537.477 913.507 535.325C913.507 533.262 914.225 531.557 915.66 530.212C917.095 528.777 918.889 528.059 921.042 528.059H927.231V519.448C927.231 517.116 927.993 515.188 929.518 513.663C931.133 512.048 933.106 511.241 935.438 511.241C937.681 511.241 939.564 512.048 941.089 513.663C942.614 515.188 943.376 517.116 943.376 519.448V528.059H952.929C955.082 528.059 956.876 528.777 958.311 530.212C959.746 531.647 960.464 533.441 960.464 535.594C960.464 537.657 959.746 539.406 958.311 540.841C956.876 542.186 955.082 542.859 952.929 542.859H943.376V579.321C943.376 581.204 943.87 582.595 944.856 583.492C945.843 584.299 947.189 584.703 948.893 584.703C949.61 584.703 950.597 584.523 951.853 584.164C952.929 583.716 953.961 583.492 954.947 583.492Z" fill="#182B40"/>
<circle cx="792.253" cy="557.784" r="43.935" fill="#FF3D51"/>
<path fill-rule="evenodd" clip-rule="evenodd" d="M785.742 540.421C789.906 538.002 795.024 538.044 799.149 540.532C803.233 543.07 805.715 547.6 805.692 552.474C805.597 557.315 802.935 561.866 799.608 565.384C797.688 567.424 795.539 569.228 793.207 570.758C792.967 570.897 792.704 570.99 792.431 571.033C792.168 571.022 791.912 570.944 791.686 570.807C788.126 568.507 785.002 565.571 782.466 562.141C780.343 559.277 779.137 555.818 779.012 552.232C779.009 547.349 781.578 542.84 785.742 540.421ZM788.148 554.253C788.849 555.979 790.502 557.106 792.336 557.106C793.537 557.114 794.693 556.633 795.544 555.769C796.395 554.905 796.871 553.73 796.867 552.506C796.873 550.638 795.774 548.95 794.081 548.23C792.388 547.511 790.437 547.902 789.138 549.221C787.838 550.539 787.448 552.526 788.148 554.253Z" fill="white"/>
<ellipse opacity="0.4" cx="792.352" cy="574.844" rx="9.52871" ry="1.90571" fill="white"/>
<defs>
<filter id="filter0_f_461_1608" x="60" y="420.414" width="220.942" height="144.695" filterUnits="userSpaceOnUse" color-interpolation-filters="sRGB">
<feFlood flood-opacity="0" result="BackgroundImageFix"/>
<feBlend mode="normal" in="SourceGraphic" in2="BackgroundImageFix" result="shape"/>
<feGaussianBlur stdDeviation="30" result="effect1_foregroundBlur_461_1608"/>
</filter>
<filter id="filter1_f_461_1608" x="47.7246" y="445.806" width="240.931" height="225.373" filterUnits="userSpaceOnUse" color-interpolation-filters="sRGB">
<feFlood flood-opacity="0" result="BackgroundImageFix"/>
<feBlend mode="normal" in="SourceGraphic" in2="BackgroundImageFix" result="shape"/>
<feGaussianBlur stdDeviation="35" result="effect1_foregroundBlur_461_1608"/>
</filter>
</defs>
</svg>
