<svg width="9000" height="9000" viewBox="0 0 9000 9000" fill="none" xmlns="http://www.w3.org/2000/svg">
<path d="M917.574 4892.51H998.66V4973.6H917.574V4892.51Z" fill="#FF3D51"/>
<path d="M1039.2 4892.51H1120.29V4973.6H1039.2V4892.51Z" fill="#FF3D51"/>
<path d="M917.574 5014.14H998.66V5095.23H917.574V5014.14Z" fill="#FF3D51"/>
<path d="M1039.2 5014.14H1120.29V5095.23H1039.2V5014.14Z" fill="#FF3D51"/>
<path d="M1134.78 3905V4136.67L775.682 4136.67V3905L1134.78 3905Z" fill="#FF3D51"/>
<path d="M1262.2 4232.24H1493.87V4281.47L1380.93 4397.31H1262.2V4232.24Z" fill="#FF3D51"/>
<path d="M1493.87 4232.24C1493.87 4006.36 1347.63 3905 1134.78 3905V4136.67C1192.7 4136.67 1262.2 4164.19 1262.2 4232.24H1493.87Z" fill="#FF3D51"/>
<path d="M1493.87 4281.47C1493.87 4345.45 1442.01 4397.31 1378.04 4397.31C1314.06 4397.31 1262.2 4345.45 1262.2 4281.47C1262.2 4217.5 1314.06 4165.63 1378.04 4165.63C1442.01 4165.63 1493.87 4217.5 1493.87 4281.47Z" fill="#FF3D51"/>
<path d="M775.682 3905V4136.67H656.949L544.008 4023.73L544.008 3905L775.682 3905Z" fill="#FF3D51"/>
<path d="M659.845 4136.67C595.87 4136.67 544.008 4084.81 544.008 4020.84C544.008 3956.86 595.87 3905 659.845 3905C723.82 3905 775.682 3956.86 775.682 4020.84C775.682 4084.81 723.82 4136.67 659.845 4136.67Z" fill="#FF3D51"/>
<mask id="mask0_528_1152" style="mask-type:alpha" maskUnits="userSpaceOnUse" x="544" y="3905" width="950" height="493">
<path d="M1134.77 3905V4136.67L775.675 4136.67V3905L1134.77 3905Z" fill="#FF3D51"/>
<path d="M1262.19 4232.24H1493.87V4281.47L1380.92 4397.31H1262.19V4232.24Z" fill="#FF3D51"/>
<path d="M1493.87 4232.24C1493.87 4006.36 1347.62 3905 1134.77 3905V4136.67C1192.69 4136.67 1262.19 4164.19 1262.19 4232.24H1493.87Z" fill="#FF3D51"/>
<path d="M1493.87 4281.47C1493.87 4345.45 1442 4397.31 1378.03 4397.31C1314.05 4397.31 1262.19 4345.45 1262.19 4281.47C1262.19 4217.5 1314.05 4165.63 1378.03 4165.63C1442 4165.63 1493.87 4217.5 1493.87 4281.47Z" fill="#FF3D51"/>
<path d="M775.675 3905V4136.67H656.941L544 4023.73L544 3905L775.675 3905Z" fill="#FF3D51"/>
<path d="M659.837 4136.67C595.862 4136.67 544 4084.81 544 4020.84C544 3956.86 595.862 3905 659.837 3905C723.812 3905 775.675 3956.86 775.675 4020.84C775.675 4084.81 723.812 4136.67 659.837 4136.67Z" fill="#FF3D51"/>
</mask>
<g mask="url(#mask0_528_1152)">
<g filter="url(#filter0_f_528_1152)">
<rect x="544" y="3937.14" width="950.254" height="232.475" fill="#FB122A"/>
</g>
</g>
<mask id="mask1_528_1152" style="mask-type:alpha" maskUnits="userSpaceOnUse" x="544" y="3905" width="950" height="493">
<path d="M1134.77 3905V4136.67L775.675 4136.67V3905L1134.77 3905Z" fill="#FF3D51"/>
<path d="M1262.19 4232.24H1493.87V4281.47L1380.92 4397.31H1262.19V4232.24Z" fill="#FF3D51"/>
<path d="M1493.87 4232.24C1493.87 4006.36 1347.62 3905 1134.77 3905V4136.67C1192.69 4136.67 1262.19 4164.19 1262.19 4232.24H1493.87Z" fill="#FF3D51"/>
<path d="M1493.87 4281.47C1493.87 4345.45 1442 4397.31 1378.03 4397.31C1314.05 4397.31 1262.19 4345.45 1262.19 4281.47C1262.19 4217.5 1314.05 4165.63 1378.03 4165.63C1442 4165.63 1493.87 4217.5 1493.87 4281.47Z" fill="#FF3D51"/>
<path d="M775.675 3905V4136.67H656.941L544 4023.73L544 3905L775.675 3905Z" fill="#FF3D51"/>
<path d="M659.837 4136.67C595.862 4136.67 544 4084.81 544 4020.84C544 3956.86 595.862 3905 659.837 3905C723.812 3905 775.675 3956.86 775.675 4020.84C775.675 4084.81 723.812 4136.67 659.837 4136.67Z" fill="#FF3D51"/>
</mask>
<g mask="url(#mask1_528_1152)">
<rect x="544" y="3905" width="950.254" height="232.475" fill="#FF3D51"/>
</g>
<path d="M1262.19 4767.99H1493.87V4973.6H1262.19V4767.99Z" fill="#760D9D"/>
<path d="M544 4463.92H775.675V4973.6H544V4463.92Z" fill="#760D9D"/>
<path d="M1019.08 4291.54L1182.9 4455.36L707.819 4930.44L544 4766.62L1019.08 4291.54Z" fill="#760D9D"/>
<path d="M1494.15 4766.62L1330.33 4930.44L856.384 4456.5L1020.2 4292.68L1494.15 4766.62Z" fill="#760D9D"/>
<path d="M775.675 4863.55H544V4979.39L656.942 5095.23H775.675V4863.55Z" fill="#760D9D"/>
<path d="M544 4979.39C544 5043.37 595.862 5095.23 659.837 5095.23C723.813 5095.23 775.675 5043.37 775.675 4979.39C775.675 4915.42 723.813 4863.55 659.837 4863.55C595.862 4863.55 544 4915.42 544 4979.39Z" fill="#760D9D"/>
<path d="M775.675 4463.92H544L544 4345.18L656.942 4232.24L775.675 4232.24L775.675 4463.92Z" fill="#760D9D"/>
<path d="M544 4348.08C544 4284.1 595.862 4232.24 659.837 4232.24C723.813 4232.24 775.675 4284.1 775.675 4348.08C775.675 4412.05 723.813 4463.92 659.837 4463.92C595.862 4463.92 544 4412.05 544 4348.08Z" fill="#760D9D"/>
<path d="M1262.19 4863.55H1493.87V4982.29L1380.92 5095.23H1262.19L1262.19 4863.55Z" fill="#760D9D"/>
<path d="M1493.87 4979.39C1493.87 5043.37 1442 5095.23 1378.03 5095.23C1314.05 5095.23 1262.19 5043.37 1262.19 4979.39C1262.19 4915.42 1314.05 4863.55 1378.03 4863.55C1442 4863.55 1493.87 4915.42 1493.87 4979.39Z" fill="#760D9D"/>
<mask id="mask2_528_1152" style="mask-type:alpha" maskUnits="userSpaceOnUse" x="544" y="4232" width="951" height="864">
<path d="M1262.19 4767.99H1493.87V4973.6H1262.19V4767.99Z" fill="#760D9D"/>
<path d="M544 4463.92H775.675V4973.6H544V4463.92Z" fill="#760D9D"/>
<path d="M1019.08 4291.54L1182.9 4455.36L707.819 4930.44L544 4766.62L1019.08 4291.54Z" fill="#760D9D"/>
<path d="M1494.15 4766.62L1330.33 4930.44L856.384 4456.5L1020.2 4292.68L1494.15 4766.62Z" fill="#760D9D"/>
<path d="M775.675 4863.55H544V4979.39L656.942 5095.23H775.675V4863.55Z" fill="#760D9D"/>
<path d="M544 4979.39C544 5043.37 595.862 5095.23 659.837 5095.23C723.813 5095.23 775.675 5043.37 775.675 4979.39C775.675 4915.42 723.813 4863.55 659.837 4863.55C595.862 4863.55 544 4915.42 544 4979.39Z" fill="#760D9D"/>
<path d="M775.675 4463.92H544L544 4345.18L656.942 4232.24L775.675 4232.24L775.675 4463.92Z" fill="#760D9D"/>
<path d="M544 4348.08C544 4284.1 595.862 4232.24 659.837 4232.24C723.813 4232.24 775.675 4284.1 775.675 4348.08C775.675 4412.05 723.813 4463.92 659.837 4463.92C595.862 4463.92 544 4412.05 544 4348.08Z" fill="#760D9D"/>
<path d="M1262.19 4863.55H1493.87V4982.29L1380.92 5095.23H1262.19L1262.19 4863.55Z" fill="#760D9D"/>
<path d="M1493.87 4979.39C1493.87 5043.37 1442 5095.23 1378.03 5095.23C1314.05 5095.23 1262.19 5043.37 1262.19 4979.39C1262.19 4915.42 1314.05 4863.55 1378.03 4863.55C1442 4863.55 1493.87 4915.42 1493.87 4979.39Z" fill="#760D9D"/>
</mask>
<g mask="url(#mask2_528_1152)">
<g filter="url(#filter1_f_528_1152)">
<path d="M1240.77 4746.76H1472.44V4952.38H1240.77V4746.76Z" fill="#69048E"/>
<path d="M522.574 4745.4L754.249 4513.73L754.249 4965.83H522.574L522.574 4745.4Z" fill="#69048E"/>
<path d="M997.656 4270.32L1161.48 4434.14L686.393 4909.22L522.574 4745.4L997.656 4270.32Z" fill="#69048E"/>
<path d="M1472.72 4745.4L1308.9 4909.22L834.958 4435.27L998.777 4271.45L1472.72 4745.4Z" fill="#69048E"/>
<path d="M754.249 4842.33H522.574V4958.17L635.516 5074H754.249V4842.33Z" fill="#69048E"/>
<path d="M522.574 4958.17C522.574 5022.14 574.437 5074 638.412 5074C702.387 5074 754.249 5022.14 754.249 4958.17C754.249 4894.19 702.387 4842.33 638.412 4842.33C574.437 4842.33 522.574 4894.19 522.574 4958.17Z" fill="#69048E"/>
<path d="M1240.77 4842.33H1472.44V4961.06L1359.5 5074H1240.77L1240.77 4842.33Z" fill="#69048E"/>
<path d="M1472.44 4958.17C1472.44 5022.14 1420.58 5074 1356.6 5074C1292.63 5074 1240.77 5022.14 1240.77 4958.17C1240.77 4894.19 1292.63 4842.33 1356.6 4842.33C1420.58 4842.33 1472.44 4894.19 1472.44 4958.17Z" fill="#69048E"/>
</g>
</g>
<path d="M1262.19 4768.19H1493.87V4973.8H1262.19V4768.19Z" fill="#760D9D"/>
<path d="M544 4766.83L775.675 4535.15L775.675 4987.26H544L544 4766.83Z" fill="#760D9D"/>
<path d="M1019.08 4291.74L1182.9 4455.56L707.819 4930.64L544 4766.83L1019.08 4291.74Z" fill="#760D9D"/>
<path d="M1494.15 4766.83L1330.33 4930.64L856.384 4456.7L1020.2 4292.88L1494.15 4766.83Z" fill="#760D9D"/>
<path d="M775.675 4863.76H544V4979.59L656.942 5095.43H775.675V4863.76Z" fill="#760D9D"/>
<path d="M544 4979.59C544 5043.57 595.862 5095.43 659.837 5095.43C723.813 5095.43 775.675 5043.57 775.675 4979.59C775.675 4915.62 723.813 4863.76 659.837 4863.76C595.862 4863.76 544 4915.62 544 4979.59Z" fill="#760D9D"/>
<path d="M1262.19 4863.76H1493.87V4982.49L1380.92 5095.43H1262.19L1262.19 4863.76Z" fill="#760D9D"/>
<path d="M1493.87 4979.59C1493.87 5043.57 1442 5095.43 1378.03 5095.43C1314.05 5095.43 1262.19 5043.57 1262.19 4979.59C1262.19 4915.62 1314.05 4863.76 1378.03 4863.76C1442 4863.76 1493.87 4915.62 1493.87 4979.59Z" fill="#760D9D"/>
<path d="M2369.24 4695.98C2368.4 4716.24 2360.38 4732.71 2345.18 4745.38C2329.98 4758.04 2312.24 4764.37 2291.98 4764.37H1874.01C1884.14 4814.19 1907.36 4853.46 1943.67 4882.17C1979.98 4910.03 2020.93 4923.96 2066.53 4923.96C2101.15 4923.96 2128.17 4921.01 2147.59 4915.1C2167.01 4908.34 2182.21 4901.59 2193.19 4894.83C2205.01 4887.23 2213.03 4882.17 2217.25 4879.63C2232.45 4872.03 2246.8 4868.23 2260.31 4868.23C2278.05 4868.23 2293.25 4874.57 2305.91 4887.23C2318.58 4899.9 2324.91 4914.68 2324.91 4931.56C2324.91 4954.36 2313.09 4975.05 2289.45 4993.63C2265.8 5013.05 2234.14 5029.51 2194.45 5043.02C2154.77 5056.53 2114.66 5063.29 2074.13 5063.29C2003.2 5063.29 1941.13 5048.51 1887.94 5018.96C1835.59 4989.4 1795.05 4948.87 1766.35 4897.37C1737.64 4845.01 1723.28 4786.33 1723.28 4721.31C1723.28 4648.69 1738.48 4584.94 1768.88 4530.05C1799.28 4475.17 1839.39 4433.37 1889.2 4404.66C1939.02 4375.11 1992.22 4360.33 2048.79 4360.33C2104.52 4360.33 2156.88 4375.53 2205.85 4405.93C2255.67 4436.33 2295.36 4477.28 2324.91 4528.79C2354.46 4580.3 2369.24 4636.03 2369.24 4695.98ZM2048.79 4499.66C1950.84 4499.66 1893 4545.68 1875.27 4637.72H2207.12V4628.85C2203.74 4593.38 2186.43 4562.99 2155.19 4537.65C2123.95 4512.32 2088.48 4499.66 2048.79 4499.66Z" fill="#182B40"/>
<path d="M2822.78 4907.5C2834.6 4907.5 2845.16 4913.41 2854.44 4925.23C2864.58 4936.21 2869.64 4950.98 2869.64 4969.56C2869.64 4992.36 2856.98 5011.78 2831.64 5027.82C2807.16 5043.02 2779.29 5050.62 2748.05 5050.62C2695.7 5050.62 2651.37 5039.65 2615.06 5017.69C2579.59 4994.89 2561.86 4947.18 2561.86 4874.57V4524.99H2503.6C2483.33 4524.99 2466.45 4518.23 2452.93 4504.72C2439.42 4491.21 2432.67 4474.33 2432.67 4454.06C2432.67 4434.64 2439.42 4418.6 2452.93 4405.93C2466.45 4392.42 2483.33 4385.66 2503.6 4385.66H2561.86V4304.6C2561.86 4282.65 2569.04 4264.49 2583.39 4250.14C2598.59 4234.94 2617.17 4227.34 2639.12 4227.34C2660.23 4227.34 2677.97 4234.94 2692.32 4250.14C2706.67 4264.49 2713.85 4282.65 2713.85 4304.6V4385.66H2803.78C2824.05 4385.66 2840.93 4392.42 2854.44 4405.93C2867.95 4419.44 2874.71 4436.33 2874.71 4456.59C2874.71 4476.01 2867.95 4492.48 2854.44 4505.99C2840.93 4518.66 2824.05 4524.99 2803.78 4524.99H2713.85V4868.23C2713.85 4885.97 2718.5 4899.05 2727.78 4907.5C2737.07 4915.1 2749.74 4918.9 2765.78 4918.9C2772.54 4918.9 2781.83 4917.21 2793.65 4913.83C2803.78 4909.61 2813.49 4907.5 2822.78 4907.5Z" fill="#182B40"/>
<path d="M3562.69 4360.33C3584.65 4360.33 3602.8 4367.51 3617.16 4381.86C3631.51 4396.22 3638.69 4414.8 3638.69 4437.59V4973.36C3638.69 4995.32 3631.51 5013.89 3617.16 5029.09C3602.8 5043.45 3584.65 5050.62 3562.69 5050.62C3540.74 5050.62 3522.59 5043.45 3508.23 5029.09C3494.72 5014.74 3487.54 4996.58 3486.7 4974.63C3465.59 4999.11 3436.88 5020.22 3400.57 5037.96C3365.11 5054.84 3327.53 5063.29 3287.84 5063.29C3229.58 5063.29 3176.81 5048.51 3129.52 5018.96C3082.23 4988.56 3044.66 4946.76 3016.79 4893.57C2989.77 4840.37 2976.26 4780 2976.26 4712.44C2976.26 4644.89 2989.77 4584.52 3016.79 4531.32C3043.81 4477.28 3080.55 4435.48 3126.99 4405.93C3174.27 4375.53 3226.2 4360.33 3282.78 4360.33C3323.31 4360.33 3361.31 4367.93 3396.77 4383.13C3432.24 4397.49 3462.21 4416.06 3486.7 4438.86V4437.59C3486.7 4415.64 3493.88 4397.49 3508.23 4383.13C3522.59 4367.93 3540.74 4360.33 3562.69 4360.33ZM3306.84 4923.96C3361.73 4923.96 3406.48 4904.12 3441.1 4864.43C3475.72 4823.9 3493.03 4773.24 3493.03 4712.44C3493.03 4651.65 3475.72 4600.98 3441.1 4560.45C3406.48 4519.92 3361.73 4499.66 3306.84 4499.66C3252.8 4499.66 3208.47 4519.92 3173.85 4560.45C3139.23 4600.98 3121.92 4651.65 3121.92 4712.44C3121.92 4773.24 3138.81 4823.9 3172.58 4864.43C3207.2 4904.12 3251.96 4923.96 3306.84 4923.96Z" fill="#182B40"/>
<path d="M4165.65 4360.33C4251.78 4360.33 4311.31 4386.09 4344.24 4437.59C4377.17 4488.26 4393.63 4558.76 4393.63 4649.11V4973.36C4393.63 4995.32 4386.46 5013.89 4372.1 5029.09C4357.75 5043.45 4339.59 5050.62 4317.64 5050.62C4295.69 5050.62 4277.53 5043.45 4263.18 5029.09C4248.82 5013.89 4241.64 4995.32 4241.64 4973.36V4649.11C4241.64 4602.67 4231.93 4566.36 4212.51 4540.19C4193.09 4513.17 4159.74 4499.66 4112.45 4499.66C4063.48 4499.66 4025.06 4514.01 3997.19 4542.72C3969.33 4570.59 3955.4 4606.05 3955.4 4649.11V4973.36C3955.4 4995.32 3948.22 5013.89 3933.86 5029.09C3919.51 5043.45 3901.35 5050.62 3879.4 5050.62C3857.45 5050.62 3839.29 5043.45 3824.94 5029.09C3810.58 5013.89 3803.4 4995.32 3803.4 4973.36V4450.26C3803.4 4428.31 3810.58 4410.15 3824.94 4395.8C3839.29 4380.6 3857.45 4373 3879.4 4373C3901.35 4373 3919.51 4380.6 3933.86 4395.8C3948.22 4410.15 3955.4 4428.31 3955.4 4450.26V4471.79C3978.19 4441.39 4007.75 4415.22 4044.06 4393.26C4081.21 4371.31 4121.74 4360.33 4165.65 4360.33Z" fill="#182B40"/>
<path d="M4701.04 4973.36C4701.04 4995.32 4693.86 5013.89 4679.51 5029.09C4665.15 5043.45 4647 5050.62 4625.04 5050.62C4603.09 5050.62 4584.94 5043.45 4570.58 5029.09C4556.23 5013.89 4549.05 4995.32 4549.05 4973.36V4450.26C4549.05 4428.31 4556.23 4410.15 4570.58 4395.8C4584.94 4380.6 4603.09 4373 4625.04 4373C4647 4373 4665.15 4380.6 4679.51 4395.8C4693.86 4410.15 4701.04 4428.31 4701.04 4450.26V4973.36ZM4623.78 4290.67C4595.07 4290.67 4574.8 4286.03 4562.98 4276.74C4551.16 4267.45 4545.25 4250.98 4545.25 4227.34V4203.28C4545.25 4179.63 4551.58 4163.17 4564.25 4153.88C4576.91 4144.59 4597.18 4139.95 4625.04 4139.95C4654.6 4139.95 4675.29 4144.59 4687.11 4153.88C4698.93 4163.17 4704.84 4179.63 4704.84 4203.28V4227.34C4704.84 4251.83 4698.51 4268.72 4685.84 4278C4674.02 4286.45 4653.33 4290.67 4623.78 4290.67Z" fill="#182B40"/>
<path d="M5405.68 4360.33C5427.63 4360.33 5445.79 4367.51 5460.14 4381.86C5474.5 4396.22 5481.67 4414.8 5481.67 4437.59V4973.36C5481.67 4995.32 5474.5 5013.89 5460.14 5029.09C5445.79 5043.45 5427.63 5050.62 5405.68 5050.62C5383.72 5050.62 5365.57 5043.45 5351.21 5029.09C5337.7 5014.74 5330.53 4996.58 5329.68 4974.63C5308.57 4999.11 5279.86 5020.22 5243.55 5037.96C5208.09 5054.84 5170.51 5063.29 5130.83 5063.29C5072.57 5063.29 5019.79 5048.51 4972.5 5018.96C4925.22 4988.56 4887.64 4946.76 4859.78 4893.57C4832.76 4840.37 4819.25 4780 4819.25 4712.44C4819.25 4644.89 4832.76 4584.52 4859.78 4531.32C4886.8 4477.28 4923.53 4435.48 4969.97 4405.93C5017.26 4375.53 5069.19 4360.33 5125.76 4360.33C5166.29 4360.33 5204.29 4367.93 5239.76 4383.13C5275.22 4397.49 5305.2 4416.06 5329.68 4438.86V4437.59C5329.68 4415.64 5336.86 4397.49 5351.21 4383.13C5365.57 4367.93 5383.72 4360.33 5405.68 4360.33ZM5149.83 4923.96C5204.71 4923.96 5249.47 4904.12 5284.09 4864.43C5318.71 4823.9 5336.02 4773.24 5336.02 4712.44C5336.02 4651.65 5318.71 4600.98 5284.09 4560.45C5249.47 4519.92 5204.71 4499.66 5149.83 4499.66C5095.79 4499.66 5051.46 4519.92 5016.84 4560.45C4982.22 4600.98 4964.91 4651.65 4964.91 4712.44C4964.91 4773.24 4981.79 4823.9 5015.57 4864.43C5050.19 4904.12 5094.94 4923.96 5149.83 4923.96Z" fill="#182B40"/>
<path d="M6337.95 4918.9C6343.01 4925.65 6347.23 4934.1 6350.61 4944.23C6353.99 4953.52 6355.68 4962.38 6355.68 4970.83C6355.68 4993.63 6346.81 5012.63 6329.08 5027.82C6312.19 5043.02 6292.35 5050.62 6269.55 5050.62C6258.57 5050.62 6248.02 5048.09 6237.89 5043.02C6227.75 5037.96 6219.31 5030.78 6212.55 5021.49L5937.7 4659.25L5817.38 4774.51V4973.36C5817.38 4996.16 5809.78 5014.74 5794.58 5029.09C5780.23 5043.45 5761.23 5050.62 5737.58 5050.62C5714.78 5050.62 5695.79 5043.45 5680.59 5029.09C5666.23 5013.89 5659.06 4995.32 5659.06 4973.36V4241.27C5659.06 4219.32 5666.65 4201.16 5681.85 4186.81C5697.05 4171.61 5716.47 4164.01 5740.12 4164.01C5762.92 4164.01 5781.49 4171.19 5795.85 4185.54C5810.2 4199.9 5817.38 4218.47 5817.38 4241.27V4585.78L6222.69 4186.81C6242.11 4167.39 6262.8 4157.68 6284.75 4157.68C6304.17 4157.68 6320.64 4165.7 6334.15 4181.74C6347.66 4197.79 6354.41 4214.67 6354.41 4232.41C6354.41 4250.14 6346.81 4266.6 6331.61 4281.8L6055.5 4545.25L6337.95 4918.9Z" fill="#182B40"/>
<path d="M7427 4945.5C7419.4 4935.36 7415.6 4922.7 7415.6 4907.5C7415.6 4885.54 7426.57 4866.97 7448.53 4851.77C7460.35 4844.17 7472.59 4840.37 7485.26 4840.37C7502.99 4840.37 7519.88 4848.39 7535.92 4864.43C7561.26 4890.61 7587.43 4910.03 7614.45 4922.7C7642.32 4935.36 7675.67 4941.7 7714.51 4941.7C7780.38 4939.16 7813.31 4914.25 7813.31 4866.97C7813.31 4842.48 7801.91 4823.9 7779.11 4811.24C7757.15 4798.57 7722.53 4785.91 7675.25 4773.24C7626.27 4759.73 7586.16 4746.22 7554.92 4732.71C7524.52 4719.2 7497.93 4698.93 7475.13 4671.91C7453.17 4644.05 7442.2 4606.89 7442.2 4560.45C7442.2 4519.92 7453.6 4484.88 7476.39 4455.33C7500.04 4424.93 7530.43 4401.71 7567.59 4385.66C7605.59 4368.78 7645.69 4360.33 7687.91 4360.33C7730.98 4360.33 7774.04 4368.35 7817.11 4384.4C7860.17 4400.44 7893.95 4424.08 7918.43 4455.33C7929.41 4468.84 7934.9 4484.04 7934.9 4500.92C7934.9 4520.34 7926.88 4536.39 7910.83 4549.05C7899.01 4558.34 7885.5 4562.99 7870.3 4562.99C7851.73 4562.99 7836.53 4557.08 7824.71 4545.25C7809.51 4526.68 7789.66 4511.9 7765.18 4500.92C7741.53 4489.95 7714.51 4484.46 7684.11 4484.46C7619.94 4484.46 7587.85 4507.68 7587.85 4554.12C7587.85 4572.7 7593.76 4587.9 7605.59 4599.72C7617.41 4610.69 7632.18 4619.56 7649.92 4626.32C7668.49 4632.23 7694.25 4639.83 7727.18 4649.11C7772.78 4661.78 7810.77 4674.87 7841.17 4688.38C7871.57 4701.89 7897.32 4722.58 7918.43 4750.44C7939.54 4778.31 7950.1 4815.04 7950.1 4860.63C7950.1 4902.01 7937.85 4938.32 7913.37 4969.56C7888.88 4999.96 7857.21 5023.18 7818.37 5039.22C7780.38 5055.27 7741.11 5063.29 7700.58 5063.29C7644.85 5063.29 7592.92 5054 7544.79 5035.42C7496.66 5016.85 7457.4 4986.87 7427 4945.5Z" fill="#182B40"/>
<path d="M8404.07 4907.5C8415.89 4907.5 8426.45 4913.41 8435.74 4925.23C8445.87 4936.21 8450.93 4950.98 8450.93 4969.56C8450.93 4992.36 8438.27 5011.78 8412.94 5027.82C8388.45 5043.02 8360.58 5050.62 8329.34 5050.62C8276.99 5050.62 8232.66 5039.65 8196.35 5017.69C8160.89 4994.89 8143.15 4947.18 8143.15 4874.57V4524.99H8084.89C8064.63 4524.99 8047.74 4518.23 8034.23 4504.72C8020.72 4491.21 8013.96 4474.33 8013.96 4454.06C8013.96 4434.64 8020.72 4418.6 8034.23 4405.93C8047.74 4392.42 8064.63 4385.66 8084.89 4385.66H8143.15V4304.6C8143.15 4282.65 8150.33 4264.49 8164.69 4250.14C8179.88 4234.94 8198.46 4227.34 8220.42 4227.34C8241.53 4227.34 8259.26 4234.94 8273.61 4250.14C8287.97 4264.49 8295.14 4282.65 8295.14 4304.6V4385.66H8385.07C8405.34 4385.66 8422.23 4392.42 8435.74 4405.93C8449.25 4419.44 8456 4436.33 8456 4456.59C8456 4476.01 8449.25 4492.48 8435.74 4505.99C8422.23 4518.66 8405.34 4524.99 8385.07 4524.99H8295.14V4868.23C8295.14 4885.97 8299.79 4899.05 8309.08 4907.5C8318.36 4915.1 8331.03 4918.9 8347.07 4918.9C8353.83 4918.9 8363.12 4917.21 8374.94 4913.83C8385.07 4909.61 8394.78 4907.5 8404.07 4907.5Z" fill="#182B40"/>
<circle cx="6872.49" cy="4665.49" r="413.598" fill="#FF3D51"/>
<path fill-rule="evenodd" clip-rule="evenodd" d="M6811.2 4502.04C6850.4 4479.26 6898.58 4479.66 6937.4 4503.08C6975.85 4526.97 6999.22 4569.62 6999 4615.5C6998.11 4661.08 6973.05 4703.92 6941.73 4737.04C6923.65 4756.24 6903.43 4773.22 6881.47 4787.63C6879.21 4788.94 6876.74 4789.81 6874.17 4790.21C6871.69 4790.11 6869.28 4789.37 6867.16 4788.08C6833.64 4766.43 6804.23 4738.8 6780.35 4706.5C6760.37 4679.55 6749.02 4646.98 6747.84 4613.22C6747.81 4567.26 6772 4524.81 6811.2 4502.04ZM6833.85 4632.24C6840.44 4648.5 6856 4659.1 6873.27 4659.1C6884.58 4659.18 6895.45 4654.65 6903.47 4646.52C6911.48 4638.39 6915.97 4627.33 6915.93 4615.8C6915.99 4598.22 6905.63 4582.33 6889.7 4575.55C6873.76 4568.78 6855.39 4572.46 6843.16 4584.87C6830.93 4597.29 6827.25 4615.99 6833.85 4632.24Z" fill="white"/>
<ellipse opacity="0.4" cx="6873.42" cy="4826.09" rx="89.7018" ry="17.9401" fill="white"/>
<defs>
<filter id="filter0_f_528_1152" x="351.713" y="3744.85" width="1334.83" height="617.048" filterUnits="userSpaceOnUse" color-interpolation-filters="sRGB">
<feFlood flood-opacity="0" result="BackgroundImageFix"/>
<feBlend mode="normal" in="SourceGraphic" in2="BackgroundImageFix" result="shape"/>
<feGaussianBlur stdDeviation="96.1433" result="effect1_foregroundBlur_528_1152"/>
</filter>
<filter id="filter1_f_528_1152" x="298.24" y="4045.98" width="1398.82" height="1252.36" filterUnits="userSpaceOnUse" color-interpolation-filters="sRGB">
<feFlood flood-opacity="0" result="BackgroundImageFix"/>
<feBlend mode="normal" in="SourceGraphic" in2="BackgroundImageFix" result="shape"/>
<feGaussianBlur stdDeviation="112.167" result="effect1_foregroundBlur_528_1152"/>
</filter>
</defs>
</svg>
