<svg width="1080" height="1080" viewBox="0 0 1080 1080" fill="none" xmlns="http://www.w3.org/2000/svg">
<path d="M493.657 719.76H530.916V757.019H493.657V719.76Z" fill="#FF3D51"/>
<path d="M549.544 719.76H586.803V757.019H549.544V719.76Z" fill="#FF3D51"/>
<path d="M493.657 775.648H530.916V812.907H493.657V775.648Z" fill="#FF3D51"/>
<path d="M549.544 775.648H586.803V812.907H549.544V775.648Z" fill="#FF3D51"/>
<path d="M593.458 266L593.458 372.454L428.454 372.454V266L593.458 266Z" fill="#FF3D51"/>
<path d="M652.007 416.366H758.461V438.988L706.565 492.215H652.007V416.366Z" fill="#FF3D51"/>
<path d="M758.461 416.366C758.461 312.574 691.262 266 593.458 266L593.458 372.454C620.071 372.454 652.007 385.095 652.007 416.366H758.461Z" fill="#FF3D51"/>
<path d="M758.461 438.988C758.461 468.384 734.631 492.215 705.234 492.215C675.838 492.215 652.007 468.384 652.007 438.988C652.007 409.591 675.838 385.761 705.234 385.761C734.631 385.761 758.461 409.591 758.461 438.988Z" fill="#FF3D51"/>
<path d="M428.454 266V372.454H373.896L322 320.558L322 266L428.454 266Z" fill="#FF3D51"/>
<path d="M375.227 372.454C345.831 372.454 322 348.623 322 319.227C322 289.831 345.831 266 375.227 266C404.623 266 428.454 289.831 428.454 319.227C428.454 348.623 404.623 372.454 375.227 372.454Z" fill="#FF3D51"/>
<mask id="mask0_461_1788" style="mask-type:alpha" maskUnits="userSpaceOnUse" x="322" y="266" width="437" height="227">
<path d="M593.458 266L593.458 372.454L428.454 372.454V266L593.458 266Z" fill="#FF3D51"/>
<path d="M652.007 416.366H758.461V438.988L706.565 492.215H652.007V416.366Z" fill="#FF3D51"/>
<path d="M758.461 416.366C758.461 312.574 691.262 266 593.458 266L593.458 372.454C620.071 372.454 652.007 385.095 652.007 416.366H758.461Z" fill="#FF3D51"/>
<path d="M758.461 438.988C758.461 468.384 734.631 492.215 705.234 492.215C675.838 492.215 652.007 468.384 652.007 438.988C652.007 409.591 675.838 385.761 705.234 385.761C734.631 385.761 758.461 409.591 758.461 438.988Z" fill="#FF3D51"/>
<path d="M428.454 266V372.454H373.896L322 320.558L322 266L428.454 266Z" fill="#FF3D51"/>
<path d="M375.227 372.454C345.831 372.454 322 348.623 322 319.227C322 289.831 345.831 266 375.227 266C404.623 266 428.454 289.831 428.454 319.227C428.454 348.623 404.623 372.454 375.227 372.454Z" fill="#FF3D51"/>
</mask>
<g mask="url(#mask0_461_1788)">
<g filter="url(#filter0_f_461_1788)">
<rect x="322" y="280.768" width="436.64" height="106.822" fill="#FB122A"/>
</g>
</g>
<mask id="mask1_461_1788" style="mask-type:alpha" maskUnits="userSpaceOnUse" x="322" y="266" width="437" height="227">
<path d="M593.458 266L593.458 372.454L428.454 372.454V266L593.458 266Z" fill="#FF3D51"/>
<path d="M652.007 416.366H758.461V438.988L706.565 492.215H652.007V416.366Z" fill="#FF3D51"/>
<path d="M758.461 416.366C758.461 312.574 691.262 266 593.458 266L593.458 372.454C620.071 372.454 652.007 385.095 652.007 416.366H758.461Z" fill="#FF3D51"/>
<path d="M758.461 438.988C758.461 468.384 734.631 492.215 705.234 492.215C675.838 492.215 652.007 468.384 652.007 438.988C652.007 409.591 675.838 385.761 705.234 385.761C734.631 385.761 758.461 409.591 758.461 438.988Z" fill="#FF3D51"/>
<path d="M428.454 266V372.454H373.896L322 320.558L322 266L428.454 266Z" fill="#FF3D51"/>
<path d="M375.227 372.454C345.831 372.454 322 348.623 322 319.227C322 289.831 345.831 266 375.227 266C404.623 266 428.454 289.831 428.454 319.227C428.454 348.623 404.623 372.454 375.227 372.454Z" fill="#FF3D51"/>
</mask>
<g mask="url(#mask1_461_1788)">
<rect x="322" y="266" width="436.64" height="106.822" fill="#FF3D51"/>
</g>
<path d="M652.007 662.541H758.461V757.019H652.007V662.541Z" fill="#760D9D"/>
<path d="M322 522.82H428.454V757.019H322V522.82Z" fill="#760D9D"/>
<path d="M540.299 443.615L615.573 518.889L397.274 737.188L322 661.914L540.299 443.615Z" fill="#760D9D"/>
<path d="M758.591 661.914L683.317 737.189L465.54 519.411L540.814 444.137L758.591 661.914Z" fill="#760D9D"/>
<path d="M428.454 706.453H322V759.68L373.896 812.907H428.454V706.453Z" fill="#760D9D"/>
<path d="M322 759.68C322 789.077 345.831 812.907 375.227 812.907C404.623 812.907 428.454 789.077 428.454 759.68C428.454 730.284 404.623 706.453 375.227 706.453C345.831 706.453 322 730.284 322 759.68Z" fill="#760D9D"/>
<path d="M428.454 522.82H322L322 468.263L373.896 416.366L428.454 416.366L428.454 522.82Z" fill="#760D9D"/>
<path d="M322 469.593C322 440.197 345.831 416.366 375.227 416.366C404.623 416.366 428.454 440.197 428.454 469.593C428.454 498.99 404.623 522.82 375.227 522.82C345.831 522.82 322 498.99 322 469.593Z" fill="#760D9D"/>
<path d="M652.007 706.453L758.461 706.453V761.011L706.565 812.907H652.007L652.007 706.453Z" fill="#760D9D"/>
<path d="M758.461 759.68C758.461 789.077 734.631 812.907 705.234 812.907C675.838 812.907 652.007 789.077 652.007 759.68C652.007 730.284 675.838 706.453 705.234 706.453C734.631 706.453 758.461 730.284 758.461 759.68Z" fill="#760D9D"/>
<mask id="mask2_461_1788" style="mask-type:alpha" maskUnits="userSpaceOnUse" x="322" y="416" width="437" height="397">
<path d="M652.007 662.541H758.461V757.019H652.007V662.541Z" fill="#760D9D"/>
<path d="M322 522.82H428.454V757.019H322V522.82Z" fill="#760D9D"/>
<path d="M540.299 443.615L615.573 518.889L397.274 737.188L322 661.914L540.299 443.615Z" fill="#760D9D"/>
<path d="M758.591 661.914L683.317 737.189L465.54 519.411L540.814 444.137L758.591 661.914Z" fill="#760D9D"/>
<path d="M428.454 706.453H322V759.68L373.896 812.907H428.454V706.453Z" fill="#760D9D"/>
<path d="M322 759.68C322 789.077 345.831 812.907 375.227 812.907C404.623 812.907 428.454 789.077 428.454 759.68C428.454 730.284 404.623 706.453 375.227 706.453C345.831 706.453 322 730.284 322 759.68Z" fill="#760D9D"/>
<path d="M428.454 522.82H322L322 468.263L373.896 416.366L428.454 416.366L428.454 522.82Z" fill="#760D9D"/>
<path d="M322 469.593C322 440.197 345.831 416.366 375.227 416.366C404.623 416.366 428.454 440.197 428.454 469.593C428.454 498.99 404.623 522.82 375.227 522.82C345.831 522.82 322 498.99 322 469.593Z" fill="#760D9D"/>
<path d="M652.007 706.453L758.461 706.453V761.011L706.565 812.907H652.007L652.007 706.453Z" fill="#760D9D"/>
<path d="M758.461 759.68C758.461 789.077 734.631 812.907 705.234 812.907C675.838 812.907 652.007 789.077 652.007 759.68C652.007 730.284 675.838 706.453 705.234 706.453C734.631 706.453 758.461 730.284 758.461 759.68Z" fill="#760D9D"/>
</mask>
<g mask="url(#mask2_461_1788)">
<g filter="url(#filter1_f_461_1788)">
<path d="M642.162 652.788H748.616V747.266H642.162V652.788Z" fill="#69048E"/>
<path d="M312.154 652.162L418.608 545.708L418.608 753.449H312.154L312.154 652.162Z" fill="#69048E"/>
<path d="M530.453 433.863L605.728 509.137L387.429 727.436L312.154 652.162L530.453 433.863Z" fill="#69048E"/>
<path d="M748.745 652.162L673.471 727.436L455.694 509.659L530.968 434.385L748.745 652.162Z" fill="#69048E"/>
<path d="M418.608 696.701H312.154V749.928L364.051 803.155H418.608V696.701Z" fill="#69048E"/>
<path d="M312.154 749.928C312.154 779.324 335.985 803.155 365.381 803.155C394.778 803.155 418.608 779.324 418.608 749.928C418.608 720.531 394.778 696.701 365.381 696.701C335.985 696.701 312.154 720.531 312.154 749.928Z" fill="#69048E"/>
<path d="M642.162 696.701H748.616V751.258L696.719 803.155H642.162L642.162 696.701Z" fill="#69048E"/>
<path d="M748.615 749.928C748.615 779.324 724.785 803.155 695.388 803.155C665.992 803.155 642.162 779.324 642.162 749.928C642.162 720.531 665.992 696.701 695.389 696.701C724.785 696.701 748.615 720.531 748.615 749.928Z" fill="#69048E"/>
</g>
</g>
<path d="M652.007 662.634H758.461V757.112H652.007V662.634Z" fill="#760D9D"/>
<path d="M322 662.007L428.454 555.553L428.454 763.294H322L322 662.007Z" fill="#760D9D"/>
<path d="M540.299 443.708L615.573 518.982L397.274 737.281L322 662.007L540.299 443.708Z" fill="#760D9D"/>
<path d="M758.591 662.007L683.317 737.282L465.54 519.504L540.814 444.23L758.591 662.007Z" fill="#760D9D"/>
<path d="M428.454 706.546H322V759.773L373.896 813H428.454V706.546Z" fill="#760D9D"/>
<path d="M322 759.773C322 789.17 345.831 813 375.227 813C404.623 813 428.454 789.17 428.454 759.773C428.454 730.377 404.623 706.546 375.227 706.546C345.831 706.546 322 730.377 322 759.773Z" fill="#760D9D"/>
<path d="M652.007 706.546H758.461V761.104L706.565 813H652.007L652.007 706.546Z" fill="#760D9D"/>
<path d="M758.461 759.773C758.461 789.17 734.631 813 705.234 813C675.838 813 652.007 789.17 652.007 759.773C652.007 730.377 675.838 706.546 705.234 706.546C734.631 706.546 758.461 730.377 758.461 759.773Z" fill="#760D9D"/>
<defs>
<filter id="filter0_f_461_1788" x="262" y="220.768" width="556.64" height="226.822" filterUnits="userSpaceOnUse" color-interpolation-filters="sRGB">
<feFlood flood-opacity="0" result="BackgroundImageFix"/>
<feBlend mode="normal" in="SourceGraphic" in2="BackgroundImageFix" result="shape"/>
<feGaussianBlur stdDeviation="30" result="effect1_foregroundBlur_461_1788"/>
</filter>
<filter id="filter1_f_461_1788" x="242.154" y="363.863" width="576.591" height="509.292" filterUnits="userSpaceOnUse" color-interpolation-filters="sRGB">
<feFlood flood-opacity="0" result="BackgroundImageFix"/>
<feBlend mode="normal" in="SourceGraphic" in2="BackgroundImageFix" result="shape"/>
<feGaussianBlur stdDeviation="35" result="effect1_foregroundBlur_461_1788"/>
</filter>
</defs>
</svg>
