<svg width="9000" height="9000" viewBox="0 0 9000 9000" fill="none" xmlns="http://www.w3.org/2000/svg">
<path d="M4084.72 5222.69H4401.73V5539.7H4084.72V5222.69Z" fill="#FF3D51"/>
<path d="M4560.22 5222.69H4877.23V5539.7H4560.22V5222.69Z" fill="#FF3D51"/>
<path d="M4084.72 5698.2H4401.73V6015.21H4084.72V5698.2Z" fill="#FF3D51"/>
<path d="M4560.22 5698.2H4877.23V6015.21H4560.22V5698.2Z" fill="#FF3D51"/>
<path d="M4933.85 1362V2267.73L3529.96 2267.73V1362L4933.85 1362Z" fill="#FF3D51"/>
<path d="M5432 2641.35H6337.73V2833.82L5896.19 3286.69H5432V2641.35Z" fill="#FF3D51"/>
<path d="M6337.73 2641.35C6337.73 1758.26 5765.99 1362 4933.85 1362V2267.73C5160.28 2267.73 5432 2375.29 5432 2641.35H6337.73Z" fill="#FF3D51"/>
<path d="M6337.73 2833.82C6337.73 3083.93 6134.98 3286.69 5884.87 3286.69C5634.76 3286.69 5432 3083.93 5432 2833.82C5432 2583.71 5634.76 2380.95 5884.87 2380.95C6134.98 2380.95 6337.73 2583.71 6337.73 2833.82Z" fill="#FF3D51"/>
<path d="M3529.96 1362V2267.73H3065.77L2624.22 1826.19L2624.22 1362L3529.96 1362Z" fill="#FF3D51"/>
<path d="M3077.09 2267.73C2826.98 2267.73 2624.22 2064.98 2624.22 1814.87C2624.22 1564.76 2826.98 1362 3077.09 1362C3327.2 1362 3529.96 1564.76 3529.96 1814.87C3529.96 2064.98 3327.2 2267.73 3077.09 2267.73Z" fill="#FF3D51"/>
<mask id="mask0_528_1179" style="mask-type:alpha" maskUnits="userSpaceOnUse" x="2624" y="1362" width="3714" height="1925">
<path d="M4933.85 1362V2267.73L3529.96 2267.73V1362L4933.85 1362Z" fill="#FF3D51"/>
<path d="M5432 2641.35H6337.73V2833.82L5896.19 3286.69H5432V2641.35Z" fill="#FF3D51"/>
<path d="M6337.73 2641.35C6337.73 1758.26 5765.99 1362 4933.85 1362V2267.73C5160.28 2267.73 5432 2375.29 5432 2641.35H6337.73Z" fill="#FF3D51"/>
<path d="M6337.73 2833.82C6337.73 3083.93 6134.98 3286.69 5884.87 3286.69C5634.76 3286.69 5432 3083.93 5432 2833.82C5432 2583.71 5634.76 2380.95 5884.87 2380.95C6134.98 2380.95 6337.73 2583.71 6337.73 2833.82Z" fill="#FF3D51"/>
<path d="M3529.96 1362V2267.73H3065.77L2624.22 1826.19L2624.22 1362L3529.96 1362Z" fill="#FF3D51"/>
<path d="M3077.09 2267.73C2826.98 2267.73 2624.22 2064.98 2624.22 1814.87C2624.22 1564.76 2826.98 1362 3077.09 1362C3327.2 1362 3529.96 1564.76 3529.96 1814.87C3529.96 2064.98 3327.2 2267.73 3077.09 2267.73Z" fill="#FF3D51"/>
</mask>
<g mask="url(#mask0_528_1179)">
<g filter="url(#filter0_f_528_1179)">
<rect x="2624.22" y="1487.65" width="3715.03" height="908.863" fill="#FB122A"/>
</g>
</g>
<mask id="mask1_528_1179" style="mask-type:alpha" maskUnits="userSpaceOnUse" x="2624" y="1362" width="3714" height="1925">
<path d="M4933.85 1362V2267.73L3529.96 2267.73V1362L4933.85 1362Z" fill="#FF3D51"/>
<path d="M5432 2641.35H6337.73V2833.82L5896.19 3286.69H5432V2641.35Z" fill="#FF3D51"/>
<path d="M6337.73 2641.35C6337.73 1758.26 5765.99 1362 4933.85 1362V2267.73C5160.28 2267.73 5432 2375.29 5432 2641.35H6337.73Z" fill="#FF3D51"/>
<path d="M6337.73 2833.82C6337.73 3083.93 6134.98 3286.69 5884.87 3286.69C5634.76 3286.69 5432 3083.93 5432 2833.82C5432 2583.71 5634.76 2380.95 5884.87 2380.95C6134.98 2380.95 6337.73 2583.71 6337.73 2833.82Z" fill="#FF3D51"/>
<path d="M3529.96 1362V2267.73H3065.77L2624.22 1826.19L2624.22 1362L3529.96 1362Z" fill="#FF3D51"/>
<path d="M3077.09 2267.73C2826.98 2267.73 2624.22 2064.98 2624.22 1814.87C2624.22 1564.76 2826.98 1362 3077.09 1362C3327.2 1362 3529.96 1564.76 3529.96 1814.87C3529.96 2064.98 3327.2 2267.73 3077.09 2267.73Z" fill="#FF3D51"/>
</mask>
<g mask="url(#mask1_528_1179)">
<rect x="2624.22" y="1362" width="3715.03" height="908.863" fill="#FF3D51"/>
</g>
<path d="M5432 4735.86H6337.74V5539.7H5432V4735.86Z" fill="#760D9D"/>
<path d="M2624.23 3547.08H3529.96V5539.7H2624.23V3547.08Z" fill="#760D9D"/>
<path d="M4481.56 2873.19L5122.01 3513.64L3264.68 5370.98L2624.22 4730.53L4481.56 2873.19Z" fill="#760D9D"/>
<path d="M6338.84 4730.53L5698.39 5370.98L3845.49 3518.08L4485.94 2877.63L6338.84 4730.53Z" fill="#760D9D"/>
<path d="M3529.96 5109.48H2624.23V5562.34L3065.77 6015.21H3529.96V5109.48Z" fill="#760D9D"/>
<path d="M2624.23 5562.34C2624.23 5812.45 2826.98 6015.21 3077.09 6015.21C3327.2 6015.21 3529.96 5812.45 3529.96 5562.34C3529.96 5312.23 3327.2 5109.48 3077.09 5109.48C2826.98 5109.48 2624.23 5312.23 2624.23 5562.34Z" fill="#760D9D"/>
<path d="M3529.96 3547.08H2624.23L2624.23 3082.9L3065.77 2641.35L3529.96 2641.35L3529.96 3547.08Z" fill="#760D9D"/>
<path d="M2624.23 3094.22C2624.23 2844.11 2826.98 2641.35 3077.09 2641.35C3327.2 2641.35 3529.96 2844.11 3529.96 3094.22C3529.96 3344.33 3327.2 3547.08 3077.09 3547.08C2826.98 3547.08 2624.23 3344.33 2624.23 3094.22Z" fill="#760D9D"/>
<path d="M5432 5109.48L6337.74 5109.48V5573.66L5896.19 6015.21H5432L5432 5109.48Z" fill="#760D9D"/>
<path d="M6337.74 5562.34C6337.74 5812.45 6134.98 6015.21 5884.87 6015.21C5634.76 6015.21 5432 5812.45 5432 5562.34C5432 5312.23 5634.76 5109.48 5884.87 5109.48C6134.98 5109.48 6337.74 5312.23 6337.74 5562.34Z" fill="#760D9D"/>
<mask id="mask2_528_1179" style="mask-type:alpha" maskUnits="userSpaceOnUse" x="2624" y="2641" width="3715" height="3375">
<path d="M5432 4735.86H6337.74V5539.7H5432V4735.86Z" fill="#760D9D"/>
<path d="M2624.23 3547.08H3529.96V5539.7H2624.23V3547.08Z" fill="#760D9D"/>
<path d="M4481.56 2873.19L5122.01 3513.64L3264.68 5370.98L2624.22 4730.53L4481.56 2873.19Z" fill="#760D9D"/>
<path d="M6338.84 4730.53L5698.39 5370.98L3845.49 3518.08L4485.94 2877.63L6338.84 4730.53Z" fill="#760D9D"/>
<path d="M3529.96 5109.48H2624.23V5562.34L3065.77 6015.21H3529.96V5109.48Z" fill="#760D9D"/>
<path d="M2624.23 5562.34C2624.23 5812.45 2826.98 6015.21 3077.09 6015.21C3327.2 6015.21 3529.96 5812.45 3529.96 5562.34C3529.96 5312.23 3327.2 5109.48 3077.09 5109.48C2826.98 5109.48 2624.23 5312.23 2624.23 5562.34Z" fill="#760D9D"/>
<path d="M3529.96 3547.08H2624.23L2624.23 3082.9L3065.77 2641.35L3529.96 2641.35L3529.96 3547.08Z" fill="#760D9D"/>
<path d="M2624.23 3094.22C2624.23 2844.11 2826.98 2641.35 3077.09 2641.35C3327.2 2641.35 3529.96 2844.11 3529.96 3094.22C3529.96 3344.33 3327.2 3547.08 3077.09 3547.08C2826.98 3547.08 2624.23 3344.33 2624.23 3094.22Z" fill="#760D9D"/>
<path d="M5432 5109.48L6337.74 5109.48V5573.66L5896.19 6015.21H5432L5432 5109.48Z" fill="#760D9D"/>
<path d="M6337.74 5562.34C6337.74 5812.45 6134.98 6015.21 5884.87 6015.21C5634.76 6015.21 5432 5812.45 5432 5562.34C5432 5312.23 5634.76 5109.48 5884.87 5109.48C6134.98 5109.48 6337.74 5312.23 6337.74 5562.34Z" fill="#760D9D"/>
</mask>
<g mask="url(#mask2_528_1179)">
<g filter="url(#filter1_f_528_1179)">
<path d="M5348.24 4652.88H6253.97V5456.72H5348.24V4652.88Z" fill="#69048E"/>
<path d="M2540.46 4647.55L3446.2 3741.82L3446.2 5509.32H2540.46L2540.46 4647.55Z" fill="#69048E"/>
<path d="M4397.8 2790.21L5038.25 3430.66L3180.91 5288L2540.46 4647.55L4397.8 2790.21Z" fill="#69048E"/>
<path d="M6255.08 4647.55L5614.63 5288L3761.73 3435.1L4402.18 2794.65L6255.08 4647.55Z" fill="#69048E"/>
<path d="M3446.2 5026.5H2540.46V5479.37L2982.01 5932.23H3446.2V5026.5Z" fill="#69048E"/>
<path d="M2540.46 5479.37C2540.46 5729.48 2743.22 5932.23 2993.33 5932.23C3243.44 5932.23 3446.2 5729.48 3446.2 5479.37C3446.2 5229.25 3243.44 5026.5 2993.33 5026.5C2743.22 5026.5 2540.46 5229.25 2540.46 5479.37Z" fill="#69048E"/>
<path d="M5348.24 5026.5H6253.97V5490.69L5812.43 5932.23H5348.24L5348.24 5026.5Z" fill="#69048E"/>
<path d="M6253.97 5479.37C6253.97 5729.48 6051.22 5932.23 5801.1 5932.23C5550.99 5932.23 5348.24 5729.48 5348.24 5479.37C5348.24 5229.25 5550.99 5026.5 5801.1 5026.5C6051.22 5026.5 6253.97 5229.26 6253.97 5479.37Z" fill="#69048E"/>
</g>
</g>
<path d="M5432 4736.65H6337.74V5540.49H5432V4736.65Z" fill="#760D9D"/>
<path d="M2624.22 4731.32L3529.96 3825.58L3529.96 5593.09H2624.23L2624.22 4731.32Z" fill="#760D9D"/>
<path d="M4481.56 2873.98L5122.01 3514.43L3264.68 5371.77L2624.22 4731.32L4481.56 2873.98Z" fill="#760D9D"/>
<path d="M6338.84 4731.32L5698.39 5371.77L3845.49 3518.87L4485.94 2878.42L6338.84 4731.32Z" fill="#760D9D"/>
<path d="M3529.96 5110.27H2624.23V5563.13L3065.77 6016H3529.96V5110.27Z" fill="#760D9D"/>
<path d="M2624.23 5563.13C2624.23 5813.25 2826.98 6016 3077.09 6016C3327.2 6016 3529.96 5813.25 3529.96 5563.13C3529.96 5313.02 3327.2 5110.27 3077.09 5110.27C2826.98 5110.27 2624.23 5313.02 2624.23 5563.13Z" fill="#760D9D"/>
<path d="M5432 5110.27H6337.74V5574.46L5896.19 6016H5432L5432 5110.27Z" fill="#760D9D"/>
<path d="M6337.73 5563.13C6337.73 5813.25 6134.98 6016 5884.87 6016C5634.76 6016 5432 5813.25 5432 5563.13C5432 5313.02 5634.76 5110.27 5884.87 5110.27C6134.98 5110.27 6337.73 5313.02 6337.73 5563.13Z" fill="#760D9D"/>
<path d="M832.944 7725C809.107 7725 787.823 7717.76 769.094 7703.29C750.365 7687.97 741 7669.24 741 7647.1V6909C741 6886.86 748.236 6868.56 762.709 6854.09C778.033 6838.76 796.762 6831.1 818.897 6831.1H1186.67C1230.94 6831.1 1272.23 6843.02 1310.54 6866.86C1349.7 6889.84 1381.2 6922.19 1405.04 6963.91C1428.88 7004.77 1440.8 7052.02 1440.8 7105.65C1440.8 7138.01 1433.99 7169.5 1420.36 7200.15C1407.59 7230.8 1389.72 7258.47 1366.73 7283.16C1344.6 7307.85 1319.48 7327 1291.39 7340.62L1292.66 7311.25C1316.5 7324.02 1336.08 7339.35 1351.41 7357.22C1367.58 7374.25 1379.93 7392.98 1388.44 7413.41C1397.8 7432.99 1403.34 7454.28 1405.04 7477.26C1408.45 7498.55 1410.57 7517.27 1411.43 7533.45C1413.13 7549.63 1415.68 7563.25 1419.09 7574.31C1423.34 7585.38 1431.01 7593.89 1442.07 7599.85C1460.8 7610.92 1472.3 7627.1 1476.55 7648.38C1481.66 7668.81 1476.98 7687.12 1462.51 7703.29C1453.14 7714.36 1441.22 7721.59 1426.75 7725C1412.28 7727.55 1397.8 7727.55 1383.33 7725C1368.86 7721.59 1356.94 7717.34 1347.58 7712.23C1333.1 7703.72 1318.63 7691.37 1304.16 7675.2C1289.68 7658.17 1277.77 7635.61 1268.4 7607.52C1259.89 7579.42 1255.63 7543.24 1255.63 7498.97C1255.63 7484.5 1253.08 7471.3 1247.97 7459.38C1242.86 7446.61 1235.62 7435.97 1226.26 7427.46C1216.9 7418.09 1204.98 7411.28 1190.5 7407.03C1176.03 7401.92 1159 7399.36 1139.42 7399.36H881.47L900.625 7369.99V7647.1C900.625 7669.24 894.666 7687.97 882.747 7703.29C870.828 7717.76 854.227 7725 832.944 7725ZM882.747 7267.83H1180.29C1195.61 7267.83 1210.51 7261.02 1224.98 7247.4C1239.46 7232.93 1251.37 7213.77 1260.74 7189.94C1270.1 7165.25 1274.79 7138.43 1274.79 7109.49C1274.79 7072.03 1264.57 7040.95 1244.14 7016.26C1224.56 6990.72 1203.27 6977.95 1180.29 6977.95H885.301L900.625 6937.09V7298.48L882.747 7267.83Z" fill="#182B40"/>
<path d="M1920.49 7737.77C1848.13 7737.77 1785.13 7722.87 1731.49 7693.07C1678.71 7662.43 1637.85 7621.14 1608.9 7569.21C1580.81 7517.27 1566.76 7458.53 1566.76 7392.98C1566.76 7316.36 1582.08 7251.23 1612.73 7197.6C1644.23 7143.11 1685.1 7101.4 1735.32 7072.45C1785.55 7043.51 1838.76 7029.03 1894.95 7029.03C1938.37 7029.03 1979.23 7037.97 2017.54 7055.85C2056.7 7073.73 2091.18 7098.42 2120.98 7129.92C2150.77 7160.57 2174.19 7196.32 2191.21 7237.19C2209.09 7278.05 2218.03 7321.47 2218.03 7367.44C2217.18 7387.87 2209.09 7404.47 2193.77 7417.24C2178.44 7430.01 2160.57 7436.4 2140.13 7436.4H1652.32L1614.01 7308.7H2082.67L2054.57 7334.24V7299.76C2052.87 7275.07 2043.93 7252.94 2027.76 7233.35C2012.43 7213.77 1992.85 7198.45 1969.02 7187.38C1946.03 7175.46 1921.34 7169.5 1894.95 7169.5C1869.41 7169.5 1845.57 7172.91 1823.44 7179.72C1801.3 7186.53 1782.15 7198.02 1765.97 7214.2C1749.8 7230.38 1737.03 7252.08 1727.66 7279.33C1718.3 7306.57 1713.62 7341.05 1713.62 7382.76C1713.62 7428.74 1722.98 7467.9 1741.71 7500.25C1761.29 7531.75 1785.98 7556.01 1815.78 7573.04C1846.42 7589.21 1878.77 7597.3 1912.83 7597.3C1944.33 7597.3 1969.44 7594.75 1988.17 7589.64C2006.9 7584.53 2021.8 7578.57 2032.87 7571.76C2044.78 7564.1 2055.43 7557.71 2064.79 7552.6C2080.11 7544.94 2094.59 7541.11 2108.21 7541.11C2126.94 7541.11 2142.26 7547.5 2154.18 7560.27C2166.95 7573.04 2173.34 7587.94 2173.34 7604.96C2173.34 7627.95 2161.42 7648.81 2137.58 7667.53C2115.44 7686.26 2084.37 7702.87 2044.36 7717.34C2004.35 7730.96 1963.06 7737.77 1920.49 7737.77Z" fill="#182B40"/>
<path d="M2359.58 7054.57H2662.23C2682.66 7054.57 2699.69 7061.39 2713.31 7075.01C2726.93 7088.63 2733.74 7105.65 2733.74 7126.09C2733.74 7145.67 2726.93 7162.27 2713.31 7175.89C2699.69 7188.66 2682.66 7195.04 2662.23 7195.04H2359.58C2339.15 7195.04 2322.12 7188.23 2308.5 7174.61C2294.88 7160.99 2288.07 7143.96 2288.07 7123.53C2288.07 7103.95 2294.88 7087.78 2308.5 7075.01C2322.12 7061.39 2339.15 7054.57 2359.58 7054.57ZM2496.22 6894.95C2518.35 6894.95 2536.23 6902.61 2549.85 6917.94C2564.32 6932.41 2571.56 6950.71 2571.56 6972.85V7541.11C2571.56 7553.03 2573.69 7562.82 2577.94 7570.48C2583.05 7578.14 2589.44 7583.68 2597.1 7587.08C2605.61 7590.49 2614.55 7592.19 2623.92 7592.19C2634.13 7592.19 2643.5 7590.49 2652.01 7587.08C2660.52 7582.83 2670.31 7580.7 2681.38 7580.7C2693.3 7580.7 2703.94 7586.23 2713.31 7597.3C2723.52 7608.37 2728.63 7623.69 2728.63 7643.27C2728.63 7667.11 2715.43 7686.69 2689.04 7702.01C2663.5 7717.34 2635.84 7725 2606.04 7725C2588.16 7725 2568.15 7723.72 2546.02 7721.17C2524.74 7717.76 2504.3 7710.53 2484.72 7699.46C2465.99 7687.54 2450.24 7669.66 2437.47 7645.83C2424.7 7621.99 2418.32 7589.21 2418.32 7547.5V6972.85C2418.32 6950.71 2425.56 6932.41 2440.03 6917.94C2455.35 6902.61 2474.08 6894.95 2496.22 6894.95Z" fill="#182B40"/>
<path d="M3433.76 7029.03C3455.9 7029.03 3474.2 7036.27 3488.68 7050.74C3503.15 7065.22 3510.38 7083.95 3510.38 7106.93V7647.1C3510.38 7669.24 3503.15 7687.97 3488.68 7703.29C3474.2 7717.76 3455.9 7725 3433.76 7725C3411.63 7725 3393.33 7717.76 3378.85 7703.29C3364.38 7687.97 3357.14 7669.24 3357.14 7647.1V7584.53L3385.24 7596.02C3385.24 7607.09 3379.28 7620.71 3367.36 7636.89C3355.44 7652.21 3339.27 7667.53 3318.83 7682.86C3298.4 7698.18 3274.14 7711.38 3246.04 7722.45C3218.8 7732.66 3189.01 7737.77 3156.66 7737.77C3097.91 7737.77 3044.7 7722.87 2997.03 7693.07C2949.36 7662.43 2911.47 7620.71 2883.38 7567.93C2856.13 7514.29 2842.51 7453 2842.51 7384.04C2842.51 7314.23 2856.13 7252.94 2883.38 7200.15C2911.47 7146.52 2948.93 7104.8 2995.75 7075.01C3042.58 7044.36 3094.51 7029.03 3151.55 7029.03C3188.15 7029.03 3221.78 7034.57 3252.43 7045.64C3283.08 7056.7 3309.47 7070.75 3331.6 7087.78C3354.59 7104.8 3372.04 7122.26 3383.96 7140.13C3396.73 7157.16 3403.12 7171.63 3403.12 7183.55L3357.14 7200.15V7106.93C3357.14 7084.8 3364.38 7066.49 3378.85 7052.02C3393.33 7036.7 3411.63 7029.03 3433.76 7029.03ZM3175.81 7597.3C3213.27 7597.3 3246.04 7587.94 3274.14 7569.21C3302.23 7550.48 3323.94 7524.94 3339.27 7492.59C3355.44 7460.24 3363.53 7424.05 3363.53 7384.04C3363.53 7343.18 3355.44 7306.57 3339.27 7274.22C3323.94 7241.87 3302.23 7216.33 3274.14 7197.6C3246.04 7178.87 3213.27 7169.5 3175.81 7169.5C3139.2 7169.5 3106.85 7178.87 3078.76 7197.6C3050.66 7216.33 3028.53 7241.87 3012.35 7274.22C2997.03 7306.57 2989.37 7343.18 2989.37 7384.04C2989.37 7424.05 2997.03 7460.24 3012.35 7492.59C3028.53 7524.94 3050.66 7550.48 3078.76 7569.21C3106.85 7587.94 3139.2 7597.3 3175.81 7597.3Z" fill="#182B40"/>
<path d="M4041.53 7029.03C4104.52 7029.03 4152.2 7042.23 4184.55 7068.62C4217.75 7095.01 4240.31 7130.34 4252.23 7174.61C4265 7218.03 4271.39 7266.56 4271.39 7320.19V7647.1C4271.39 7669.24 4264.15 7687.97 4249.68 7703.29C4235.2 7717.76 4216.9 7725 4194.77 7725C4172.63 7725 4154.33 7717.76 4139.86 7703.29C4125.38 7687.97 4118.15 7669.24 4118.15 7647.1V7320.19C4118.15 7292.1 4114.32 7266.98 4106.65 7244.85C4099.84 7221.86 4087.07 7203.56 4068.34 7189.94C4049.61 7176.32 4022.8 7169.5 3987.89 7169.5C3953.84 7169.5 3924.89 7176.32 3901.06 7189.94C3878.07 7203.56 3860.19 7221.86 3847.42 7244.85C3835.5 7266.98 3829.54 7292.1 3829.54 7320.19V7647.1C3829.54 7669.24 3822.31 7687.97 3807.84 7703.29C3793.36 7717.76 3775.06 7725 3752.92 7725C3730.79 7725 3712.49 7717.76 3698.01 7703.29C3683.54 7687.97 3676.3 7669.24 3676.3 7647.1V7119.7C3676.3 7097.57 3683.54 7079.26 3698.01 7064.79C3712.49 7049.47 3730.79 7041.8 3752.92 7041.8C3775.06 7041.8 3793.36 7049.47 3807.84 7064.79C3822.31 7079.26 3829.54 7097.57 3829.54 7119.7V7174.61L3810.39 7170.78C3818.05 7156.31 3829.12 7140.99 3843.59 7124.81C3858.06 7107.78 3875.09 7092.03 3894.67 7077.56C3914.25 7063.09 3936.39 7051.6 3961.08 7043.08C3985.76 7033.72 4012.58 7029.03 4041.53 7029.03Z" fill="#182B40"/>
<path d="M4581.32 7647.1C4581.32 7669.24 4574.08 7687.97 4559.61 7703.29C4545.14 7717.76 4526.83 7725 4504.7 7725C4482.56 7725 4464.26 7717.76 4449.79 7703.29C4435.31 7687.97 4428.08 7669.24 4428.08 7647.1V7119.7C4428.08 7097.57 4435.31 7079.26 4449.79 7064.79C4464.26 7049.47 4482.56 7041.8 4504.7 7041.8C4526.83 7041.8 4545.14 7049.47 4559.61 7064.79C4574.08 7079.26 4581.32 7097.57 4581.32 7119.7V7647.1ZM4503.42 6958.8C4474.48 6958.8 4454.04 6954.12 4442.12 6944.75C4430.21 6935.39 4424.25 6918.79 4424.25 6894.95V6870.69C4424.25 6846 4430.63 6829.4 4443.4 6820.88C4457.02 6811.52 4477.46 6806.84 4504.7 6806.84C4534.49 6806.84 4555.35 6811.52 4567.27 6820.88C4579.19 6830.25 4585.15 6846.85 4585.15 6870.69V6894.95C4585.15 6919.64 4578.76 6936.67 4565.99 6946.03C4553.22 6954.54 4532.37 6958.8 4503.42 6958.8Z" fill="#182B40"/>
<path d="M5298.13 7029.03C5320.27 7029.03 5338.57 7036.27 5353.04 7050.74C5367.52 7065.22 5374.75 7083.95 5374.75 7106.93V7647.1C5374.75 7669.24 5367.52 7687.97 5353.04 7703.29C5338.57 7717.76 5320.27 7725 5298.13 7725C5276 7725 5257.7 7717.76 5243.22 7703.29C5228.75 7687.97 5221.51 7669.24 5221.51 7647.1V7584.53L5249.61 7596.02C5249.61 7607.09 5243.65 7620.71 5231.73 7636.89C5219.81 7652.21 5203.64 7667.53 5183.2 7682.86C5162.77 7698.18 5138.51 7711.38 5110.42 7722.45C5083.17 7732.66 5053.38 7737.77 5021.02 7737.77C4962.28 7737.77 4909.07 7722.87 4861.4 7693.07C4813.73 7662.43 4775.84 7620.71 4747.75 7567.93C4720.5 7514.29 4706.88 7453 4706.88 7384.04C4706.88 7314.23 4720.5 7252.94 4747.75 7200.15C4775.84 7146.52 4813.3 7104.8 4860.12 7075.01C4906.95 7044.36 4958.88 7029.03 5015.92 7029.03C5052.52 7029.03 5086.15 7034.57 5116.8 7045.64C5147.45 7056.7 5173.84 7070.75 5195.97 7087.78C5218.96 7104.8 5236.41 7122.26 5248.33 7140.13C5261.1 7157.16 5267.49 7171.63 5267.49 7183.55L5221.51 7200.15V7106.93C5221.51 7084.8 5228.75 7066.49 5243.22 7052.02C5257.7 7036.7 5276 7029.03 5298.13 7029.03ZM5040.18 7597.3C5077.64 7597.3 5110.42 7587.94 5138.51 7569.21C5166.6 7550.48 5188.31 7524.94 5203.64 7492.59C5219.81 7460.24 5227.9 7424.05 5227.9 7384.04C5227.9 7343.18 5219.81 7306.57 5203.64 7274.22C5188.31 7241.87 5166.6 7216.33 5138.51 7197.6C5110.42 7178.87 5077.64 7169.5 5040.18 7169.5C5003.57 7169.5 4971.22 7178.87 4943.13 7197.6C4915.03 7216.33 4892.9 7241.87 4876.72 7274.22C4861.4 7306.57 4853.74 7343.18 4853.74 7384.04C4853.74 7424.05 4861.4 7460.24 4876.72 7492.59C4892.9 7524.94 4915.03 7550.48 4943.13 7569.21C4971.22 7587.94 5003.57 7597.3 5040.18 7597.3Z" fill="#182B40"/>
<path d="M6168.96 7725C6145.12 7725 6125.97 7715.21 6111.49 7695.63L5816.51 7307.42L5932.71 7188.66L6237.92 7592.19C6249.84 7608.37 6255.79 7625.82 6255.79 7644.55C6255.79 7668.39 6246.86 7687.97 6228.98 7703.29C6211.1 7717.76 6191.09 7725 6168.96 7725ZM6184.28 6824.71C6204.71 6824.71 6221.32 6833.23 6234.09 6850.25C6247.71 6866.43 6254.52 6883.03 6254.52 6900.06C6254.52 6917.94 6246.86 6934.54 6231.53 6949.86L5696.47 7461.94L5690.08 7279.33L6121.71 6854.09C6141.29 6834.51 6162.15 6824.71 6184.28 6824.71ZM5632.62 7725C5608.78 7725 5589.63 7717.76 5575.15 7703.29C5560.68 7687.97 5553.44 7669.24 5553.44 7647.1V6909C5553.44 6886.86 5561.11 6868.56 5576.43 6854.09C5591.75 6838.76 5611.34 6831.1 5635.17 6831.1C5659.01 6831.1 5677.74 6838.76 5691.36 6854.09C5705.83 6868.56 5713.07 6886.86 5713.07 6909V7647.1C5713.07 7669.24 5705.83 7687.97 5691.36 7703.29C5676.89 7717.76 5657.31 7725 5632.62 7725Z" fill="#182B40"/>
<path d="M7220.64 7619.01C7212.13 7607.09 7208.3 7591.77 7209.15 7573.04C7210 7554.31 7221.07 7538.13 7242.35 7524.51C7255.97 7516 7270.45 7512.59 7285.77 7514.29C7301.09 7515.15 7315.99 7522.81 7330.46 7537.28C7355.15 7561.97 7381.12 7581.12 7408.36 7594.75C7435.6 7608.37 7469.66 7615.18 7510.52 7615.18C7523.29 7614.33 7537.34 7612.62 7552.66 7610.07C7567.99 7606.66 7581.18 7599.85 7592.25 7589.64C7604.17 7578.57 7610.13 7561.97 7610.13 7539.83C7610.13 7521.11 7603.74 7506.21 7590.97 7495.14C7578.2 7484.07 7561.18 7474.71 7539.89 7467.05C7519.46 7459.38 7496.48 7452.15 7470.94 7445.34C7444.54 7437.67 7417.3 7429.16 7389.21 7419.8C7361.96 7410.43 7336.85 7398.51 7313.86 7384.04C7290.88 7368.72 7272.15 7348.71 7257.68 7324.02C7243.2 7299.33 7235.97 7268.26 7235.97 7230.8C7235.97 7188.23 7247.89 7152.05 7271.72 7122.26C7295.56 7092.46 7326.21 7069.47 7363.67 7053.3C7401.98 7037.12 7441.99 7029.03 7483.71 7029.03C7510.1 7029.03 7537.76 7032.44 7566.71 7039.25C7595.66 7045.21 7623.32 7055.43 7649.71 7069.9C7676.11 7083.52 7698.24 7101.82 7716.12 7124.81C7725.48 7137.58 7731.02 7152.9 7732.72 7170.78C7734.42 7188.66 7726.34 7204.84 7708.46 7219.31C7695.69 7229.52 7680.79 7234.21 7663.76 7233.35C7646.74 7231.65 7632.69 7225.69 7621.62 7215.48C7607.15 7196.75 7587.57 7181.85 7562.88 7170.78C7539.04 7159.71 7511.37 7154.18 7479.87 7154.18C7467.1 7154.18 7453.06 7155.88 7437.73 7159.29C7423.26 7161.84 7410.49 7168.23 7399.42 7178.44C7388.36 7187.81 7382.82 7203.13 7382.82 7224.42C7382.82 7244 7389.21 7259.75 7401.98 7271.66C7414.75 7282.73 7431.77 7292.1 7453.06 7299.76C7475.19 7306.57 7498.6 7313.38 7523.29 7320.19C7548.83 7327 7574.8 7335.09 7601.19 7344.45C7627.58 7353.82 7651.84 7366.16 7673.98 7381.49C7696.11 7396.81 7713.99 7416.82 7727.61 7441.51C7741.23 7465.34 7748.04 7495.99 7748.04 7533.45C7748.04 7576.87 7735.27 7613.9 7709.73 7644.55C7684.19 7675.2 7652.27 7698.61 7613.96 7714.78C7575.65 7730.11 7536.49 7737.77 7496.48 7737.77C7446.25 7737.77 7396.02 7729.26 7345.79 7712.23C7295.56 7694.35 7253.85 7663.28 7220.64 7619.01Z" fill="#182B40"/>
<path d="M7883.94 7054.57H8186.59C8207.03 7054.57 8224.05 7061.39 8237.67 7075.01C8251.3 7088.63 8258.11 7105.65 8258.11 7126.09C8258.11 7145.67 8251.3 7162.27 8237.67 7175.89C8224.05 7188.66 8207.03 7195.04 8186.59 7195.04H7883.94C7863.51 7195.04 7846.49 7188.23 7832.86 7174.61C7819.24 7160.99 7812.43 7143.96 7812.43 7123.53C7812.43 7103.95 7819.24 7087.78 7832.86 7075.01C7846.49 7061.39 7863.51 7054.57 7883.94 7054.57ZM8020.58 6894.95C8042.72 6894.95 8060.6 6902.61 8074.22 6917.94C8088.69 6932.41 8095.93 6950.71 8095.93 6972.85V7541.11C8095.93 7553.03 8098.05 7562.82 8102.31 7570.48C8107.42 7578.14 8113.8 7583.68 8121.47 7587.08C8129.98 7590.49 8138.92 7592.19 8148.28 7592.19C8158.5 7592.19 8167.86 7590.49 8176.38 7587.08C8184.89 7582.83 8194.68 7580.7 8205.75 7580.7C8217.67 7580.7 8228.31 7586.23 8237.67 7597.3C8247.89 7608.37 8253 7623.69 8253 7643.27C8253 7667.11 8239.8 7686.69 8213.41 7702.01C8187.87 7717.34 8160.2 7725 8130.41 7725C8112.53 7725 8092.52 7723.72 8070.39 7721.17C8049.1 7717.76 8028.67 7710.53 8009.09 7699.46C7990.36 7687.54 7974.61 7669.66 7961.84 7645.83C7949.07 7621.99 7942.69 7589.21 7942.69 7547.5V6972.85C7942.69 6950.71 7949.92 6932.41 7964.4 6917.94C7979.72 6902.61 7998.45 6894.95 8020.58 6894.95Z" fill="#182B40"/>
<circle cx="6736.32" cy="7319.1" r="406.098" fill="#FF3D51"/>
<path fill-rule="evenodd" clip-rule="evenodd" d="M6676.13 7158.61C6714.62 7136.25 6761.92 7136.64 6800.05 7159.63C6837.8 7183.1 6860.74 7224.97 6860.53 7270.02C6859.65 7314.77 6835.05 7356.83 6804.3 7389.35C6786.55 7408.2 6766.69 7424.88 6745.13 7439.02C6742.91 7440.31 6740.48 7441.17 6737.96 7441.56C6735.53 7441.46 6733.16 7440.74 6731.08 7439.47C6698.16 7418.21 6669.29 7391.08 6645.85 7359.37C6626.23 7332.9 6615.08 7300.92 6613.92 7267.78C6613.9 7222.65 6637.65 7180.97 6676.13 7158.61ZM6698.37 7286.46C6704.85 7302.42 6720.13 7312.83 6737.08 7312.83C6748.19 7312.91 6758.86 7308.46 6766.73 7300.47C6774.6 7292.49 6779 7281.63 6778.96 7270.31C6779.02 7253.05 6768.85 7237.44 6753.21 7230.79C6737.56 7224.14 6719.53 7227.76 6707.52 7239.95C6695.51 7252.14 6691.9 7270.5 6698.37 7286.46Z" fill="white"/>
<ellipse opacity="0.4" cx="6737.23" cy="7476.79" rx="88.0752" ry="17.6148" fill="white"/>
<defs>
<filter id="filter0_f_528_1179" x="2564.22" y="1427.65" width="3835.03" height="1028.86" filterUnits="userSpaceOnUse" color-interpolation-filters="sRGB">
<feFlood flood-opacity="0" result="BackgroundImageFix"/>
<feBlend mode="normal" in="SourceGraphic" in2="BackgroundImageFix" result="shape"/>
<feGaussianBlur stdDeviation="30" result="effect1_foregroundBlur_528_1179"/>
</filter>
<filter id="filter1_f_528_1179" x="2470.46" y="2720.21" width="3854.62" height="3282.02" filterUnits="userSpaceOnUse" color-interpolation-filters="sRGB">
<feFlood flood-opacity="0" result="BackgroundImageFix"/>
<feBlend mode="normal" in="SourceGraphic" in2="BackgroundImageFix" result="shape"/>
<feGaussianBlur stdDeviation="35" result="effect1_foregroundBlur_528_1179"/>
</filter>
</defs>
</svg>
