<svg width="9000" height="9000" viewBox="0 0 9000 9000" fill="none" xmlns="http://www.w3.org/2000/svg">
<path d="M3993.45 6456.83H4397.91V6861.29H3993.45V6456.83Z" fill="#FF3D51"/>
<path d="M4600.13 6456.83H5004.59V6861.29H4600.13V6456.83Z" fill="#FF3D51"/>
<path d="M3993.45 7063.53H4397.91V7467.99H3993.45V7063.53Z" fill="#FF3D51"/>
<path d="M4600.13 7063.53H5004.59V7467.99H4600.13V7063.53Z" fill="#FF3D51"/>
<path d="M5076.83 1531L5076.83 2686.62L3285.62 2686.62V1531L5076.83 1531Z" fill="#FF3D51"/>
<path d="M5712.42 3163.31H6868.04V3408.88L6304.67 3986.69H5712.42V3163.31Z" fill="#FF3D51"/>
<path d="M6868.04 3163.31C6868.04 2036.58 6138.55 1531 5076.83 1531L5076.83 2686.62C5365.73 2686.62 5712.42 2823.85 5712.42 3163.31H6868.04Z" fill="#FF3D51"/>
<path d="M6868.04 3408.88C6868.04 3728 6609.34 3986.69 6290.23 3986.69C5971.11 3986.69 5712.42 3728 5712.42 3408.88C5712.42 3089.77 5971.11 2831.07 6290.23 2831.07C6609.34 2831.07 6868.04 3089.77 6868.04 3408.88Z" fill="#FF3D51"/>
<path d="M3285.62 1531V2686.62H2693.36L2130 2123.25L2130 1531L3285.62 1531Z" fill="#FF3D51"/>
<path d="M2707.81 2686.62C2388.69 2686.62 2130 2427.92 2130 2108.81C2130 1789.69 2388.69 1531 2707.81 1531C3026.92 1531 3285.62 1789.69 3285.62 2108.81C3285.62 2427.92 3026.92 2686.62 2707.81 2686.62Z" fill="#FF3D51"/>
<mask id="mask0_529_1163" style="mask-type:alpha" maskUnits="userSpaceOnUse" x="2130" y="1531" width="4739" height="2456">
<path d="M5076.83 1531L5076.83 2686.62L3285.62 2686.62V1531L5076.83 1531Z" fill="#FF3D51"/>
<path d="M5712.42 3163.31H6868.04V3408.88L6304.67 3986.69H5712.42V3163.31Z" fill="#FF3D51"/>
<path d="M6868.04 3163.31C6868.04 2036.58 6138.55 1531 5076.83 1531L5076.83 2686.62C5365.73 2686.62 5712.42 2823.85 5712.42 3163.31H6868.04Z" fill="#FF3D51"/>
<path d="M6868.04 3408.88C6868.04 3728 6609.34 3986.69 6290.23 3986.69C5971.11 3986.69 5712.42 3728 5712.42 3408.88C5712.42 3089.77 5971.11 2831.07 6290.23 2831.07C6609.34 2831.07 6868.04 3089.77 6868.04 3408.88Z" fill="#FF3D51"/>
<path d="M3285.62 1531V2686.62H2693.36L2130 2123.25L2130 1531L3285.62 1531Z" fill="#FF3D51"/>
<path d="M2707.81 2686.62C2388.69 2686.62 2130 2427.92 2130 2108.81C2130 1789.69 2388.69 1531 2707.81 1531C3026.92 1531 3285.62 1789.69 3285.62 2108.81C3285.62 2427.92 3026.92 2686.62 2707.81 2686.62Z" fill="#FF3D51"/>
</mask>
<g mask="url(#mask0_529_1163)">
<g filter="url(#filter0_f_529_1163)">
<rect x="2130" y="1691.31" width="4739.97" height="1159.61" fill="#FB122A"/>
</g>
</g>
<mask id="mask1_529_1163" style="mask-type:alpha" maskUnits="userSpaceOnUse" x="2130" y="1531" width="4739" height="2456">
<path d="M5076.83 1531L5076.83 2686.62L3285.62 2686.62V1531L5076.83 1531Z" fill="#FF3D51"/>
<path d="M5712.42 3163.31H6868.04V3408.88L6304.67 3986.69H5712.42V3163.31Z" fill="#FF3D51"/>
<path d="M6868.04 3163.31C6868.04 2036.58 6138.55 1531 5076.83 1531L5076.83 2686.62C5365.73 2686.62 5712.42 2823.85 5712.42 3163.31H6868.04Z" fill="#FF3D51"/>
<path d="M6868.04 3408.88C6868.04 3728 6609.34 3986.69 6290.23 3986.69C5971.11 3986.69 5712.42 3728 5712.42 3408.88C5712.42 3089.77 5971.11 2831.07 6290.23 2831.07C6609.34 2831.07 6868.04 3089.77 6868.04 3408.88Z" fill="#FF3D51"/>
<path d="M3285.62 1531V2686.62H2693.36L2130 2123.25L2130 1531L3285.62 1531Z" fill="#FF3D51"/>
<path d="M2707.81 2686.62C2388.69 2686.62 2130 2427.92 2130 2108.81C2130 1789.69 2388.69 1531 2707.81 1531C3026.92 1531 3285.62 1789.69 3285.62 2108.81C3285.62 2427.92 3026.92 2686.62 2707.81 2686.62Z" fill="#FF3D51"/>
</mask>
<g mask="url(#mask1_529_1163)">
<rect x="2130" y="1531" width="4739.97" height="1159.61" fill="#FF3D51"/>
</g>
<path d="M5712.42 5835.68H6868.04V6861.29H5712.42V5835.68Z" fill="#760D9D"/>
<path d="M2130 4318.93H3285.62V6861.29H2130V4318.93Z" fill="#760D9D"/>
<path d="M4499.76 3459.11L5316.91 4276.26L2947.15 6646.02L2130 5828.88L4499.76 3459.11Z" fill="#760D9D"/>
<path d="M6869.45 5828.88L6052.3 6646.02L3688.2 4281.93L4505.35 3464.78L6869.45 5828.88Z" fill="#760D9D"/>
<path d="M3285.62 6312.37H2130V6890.18L2693.36 7467.99H3285.62V6312.37Z" fill="#760D9D"/>
<path d="M2130 6890.18C2130 7209.3 2388.69 7467.99 2707.81 7467.99C3026.93 7467.99 3285.62 7209.3 3285.62 6890.18C3285.62 6571.07 3026.93 6312.37 2707.81 6312.37C2388.69 6312.37 2130 6571.07 2130 6890.18Z" fill="#760D9D"/>
<path d="M3285.62 4318.93H2130L2130 3726.68L2693.37 3163.31L3285.62 3163.31L3285.62 4318.93Z" fill="#760D9D"/>
<path d="M2130 3741.12C2130 3422.01 2388.69 3163.31 2707.81 3163.31C3026.93 3163.31 3285.62 3422.01 3285.62 3741.12C3285.62 4060.24 3026.93 4318.93 2707.81 4318.93C2388.69 4318.93 2130 4060.24 2130 3741.12Z" fill="#760D9D"/>
<path d="M5712.42 6312.37L6868.04 6312.37V6904.63L6304.67 7467.99H5712.42L5712.42 6312.37Z" fill="#760D9D"/>
<path d="M6868.04 6890.18C6868.04 7209.3 6609.34 7467.99 6290.23 7467.99C5971.11 7467.99 5712.42 7209.3 5712.42 6890.18C5712.42 6571.07 5971.11 6312.37 6290.23 6312.37C6609.34 6312.37 6868.04 6571.07 6868.04 6890.18Z" fill="#760D9D"/>
<mask id="mask2_529_1163" style="mask-type:alpha" maskUnits="userSpaceOnUse" x="2130" y="3163" width="4740" height="4305">
<path d="M5712.42 5835.68H6868.04V6861.29H5712.42V5835.68Z" fill="#760D9D"/>
<path d="M2130 4318.93H3285.62V6861.29H2130V4318.93Z" fill="#760D9D"/>
<path d="M4499.76 3459.11L5316.91 4276.26L2947.15 6646.02L2130 5828.88L4499.76 3459.11Z" fill="#760D9D"/>
<path d="M6869.45 5828.88L6052.3 6646.02L3688.2 4281.93L4505.35 3464.78L6869.45 5828.88Z" fill="#760D9D"/>
<path d="M3285.62 6312.37H2130V6890.18L2693.36 7467.99H3285.62V6312.37Z" fill="#760D9D"/>
<path d="M2130 6890.18C2130 7209.3 2388.69 7467.99 2707.81 7467.99C3026.93 7467.99 3285.62 7209.3 3285.62 6890.18C3285.62 6571.07 3026.93 6312.37 2707.81 6312.37C2388.69 6312.37 2130 6571.07 2130 6890.18Z" fill="#760D9D"/>
<path d="M3285.62 4318.93H2130L2130 3726.68L2693.37 3163.31L3285.62 3163.31L3285.62 4318.93Z" fill="#760D9D"/>
<path d="M2130 3741.12C2130 3422.01 2388.69 3163.31 2707.81 3163.31C3026.93 3163.31 3285.62 3422.01 3285.62 3741.12C3285.62 4060.24 3026.93 4318.93 2707.81 4318.93C2388.69 4318.93 2130 4060.24 2130 3741.12Z" fill="#760D9D"/>
<path d="M5712.42 6312.37L6868.04 6312.37V6904.63L6304.67 7467.99H5712.42L5712.42 6312.37Z" fill="#760D9D"/>
<path d="M6868.04 6890.18C6868.04 7209.3 6609.34 7467.99 6290.23 7467.99C5971.11 7467.99 5712.42 7209.3 5712.42 6890.18C5712.42 6571.07 5971.11 6312.37 6290.23 6312.37C6609.34 6312.37 6868.04 6571.07 6868.04 6890.18Z" fill="#760D9D"/>
</mask>
<g mask="url(#mask2_529_1163)">
<g filter="url(#filter1_f_529_1163)">
<path d="M5605.54 5729.81H6761.16V6755.42H5605.54V5729.81Z" fill="#69048E"/>
<path d="M2023.12 5723.01L3178.74 4567.39L3178.74 6822.53H2023.13L2023.12 5723.01Z" fill="#69048E"/>
<path d="M4392.89 3353.24L5210.03 4170.39L2840.27 6540.15L2023.12 5723.01L4392.89 3353.24Z" fill="#69048E"/>
<path d="M6762.57 5723.01L5945.43 6540.15L3581.33 4176.06L4398.48 3358.91L6762.57 5723.01Z" fill="#69048E"/>
<path d="M3178.74 6206.5H2023.13V6784.31L2586.49 7362.12H3178.74V6206.5Z" fill="#69048E"/>
<path d="M2023.13 6784.31C2023.13 7103.43 2281.82 7362.12 2600.94 7362.12C2920.05 7362.12 3178.74 7103.43 3178.74 6784.31C3178.74 6465.2 2920.05 6206.5 2600.94 6206.5C2281.82 6206.5 2023.13 6465.2 2023.13 6784.31Z" fill="#69048E"/>
<path d="M5605.54 6206.5H6761.16V6798.76L6197.8 7362.12H5605.54L5605.54 6206.5Z" fill="#69048E"/>
<path d="M6761.16 6784.31C6761.16 7103.43 6502.47 7362.12 6183.35 7362.12C5864.24 7362.12 5605.54 7103.43 5605.54 6784.31C5605.54 6465.2 5864.24 6206.5 6183.35 6206.5C6502.47 6206.5 6761.16 6465.2 6761.16 6784.31Z" fill="#69048E"/>
</g>
</g>
<path d="M5712.42 5836.69H6868.04V6862.3H5712.42V5836.69Z" fill="#760D9D"/>
<path d="M2130 5829.89L3285.62 4674.27L3285.62 6929.41H2130L2130 5829.89Z" fill="#760D9D"/>
<path d="M4499.76 3460.12L5316.91 4277.27L2947.15 6647.03L2130 5829.89L4499.76 3460.12Z" fill="#760D9D"/>
<path d="M6869.45 5829.89L6052.3 6647.03L3688.2 4282.93L4505.35 3465.79L6869.45 5829.89Z" fill="#760D9D"/>
<path d="M3285.62 6313.38H2130V6891.19L2693.36 7469H3285.62V6313.38Z" fill="#760D9D"/>
<path d="M2130 6891.19C2130 7210.31 2388.69 7469 2707.81 7469C3026.93 7469 3285.62 7210.31 3285.62 6891.19C3285.62 6572.08 3026.93 6313.38 2707.81 6313.38C2388.69 6313.38 2130 6572.08 2130 6891.19Z" fill="#760D9D"/>
<path d="M5712.42 6313.38H6868.04V6905.64L6304.67 7469H5712.42L5712.42 6313.38Z" fill="#760D9D"/>
<path d="M6868.04 6891.19C6868.04 7210.31 6609.34 7469 6290.23 7469C5971.11 7469 5712.42 7210.31 5712.42 6891.19C5712.42 6572.08 5971.11 6313.38 6290.23 6313.38C6609.34 6313.38 6868.04 6572.08 6868.04 6891.19Z" fill="#760D9D"/>
<defs>
<filter id="filter0_f_529_1163" x="2070" y="1631.31" width="4859.97" height="1279.61" filterUnits="userSpaceOnUse" color-interpolation-filters="sRGB">
<feFlood flood-opacity="0" result="BackgroundImageFix"/>
<feBlend mode="normal" in="SourceGraphic" in2="BackgroundImageFix" result="shape"/>
<feGaussianBlur stdDeviation="30" result="effect1_foregroundBlur_529_1163"/>
</filter>
<filter id="filter1_f_529_1163" x="1953.12" y="3283.24" width="4879.45" height="4148.88" filterUnits="userSpaceOnUse" color-interpolation-filters="sRGB">
<feFlood flood-opacity="0" result="BackgroundImageFix"/>
<feBlend mode="normal" in="SourceGraphic" in2="BackgroundImageFix" result="shape"/>
<feGaussianBlur stdDeviation="35" result="effect1_foregroundBlur_529_1163"/>
</filter>
</defs>
</svg>
