<svg width="3000" height="3000" viewBox="0 0 3000 3000" fill="none" xmlns="http://www.w3.org/2000/svg">
<path d="M382.568 1622.14H407.87V1647.44H382.568V1622.14Z" fill="#FF3D51"/>
<path d="M420.52 1622.14H445.821V1647.44H420.52V1622.14Z" fill="#FF3D51"/>
<path d="M382.568 1660.09H407.87V1685.39H382.568V1660.09Z" fill="#FF3D51"/>
<path d="M420.52 1660.09H445.821V1685.39H420.52V1660.09Z" fill="#FF3D51"/>
<path d="M450.342 1314L450.342 1386.29L338.291 1386.29V1314L450.342 1314Z" fill="#FF3D51"/>
<path d="M490.101 1416.11H562.392V1431.47L527.15 1467.62H490.101V1416.11Z" fill="#FF3D51"/>
<path d="M562.392 1416.11C562.392 1345.63 516.758 1314 450.342 1314L450.342 1386.29C468.414 1386.29 490.101 1394.87 490.101 1416.11H562.392Z" fill="#FF3D51"/>
<path d="M562.392 1431.47C562.392 1451.43 546.209 1467.62 526.246 1467.62C506.284 1467.62 490.101 1451.43 490.101 1431.47C490.101 1411.51 506.284 1395.33 526.246 1395.33C546.209 1395.33 562.392 1411.51 562.392 1431.47Z" fill="#FF3D51"/>
<path d="M338.291 1314V1386.29H301.243L266.001 1351.05L266.001 1314L338.291 1314Z" fill="#FF3D51"/>
<path d="M302.146 1386.29C282.184 1386.29 266.001 1370.11 266.001 1350.15C266.001 1330.18 282.184 1314 302.146 1314C322.109 1314 338.291 1330.18 338.291 1350.15C338.291 1370.11 322.109 1386.29 302.146 1386.29Z" fill="#FF3D51"/>
<mask id="mask0_461_1528" style="mask-type:alpha" maskUnits="userSpaceOnUse" x="266" y="1314" width="297" height="154">
<path d="M450.341 1314L450.341 1386.29L338.29 1386.29V1314L450.341 1314Z" fill="#FF3D51"/>
<path d="M490.1 1416.11H562.391V1431.47L527.149 1467.62H490.1V1416.11Z" fill="#FF3D51"/>
<path d="M562.391 1416.11C562.391 1345.63 516.757 1314 450.341 1314L450.341 1386.29C468.413 1386.29 490.1 1394.87 490.1 1416.11H562.391Z" fill="#FF3D51"/>
<path d="M562.391 1431.47C562.391 1451.43 546.208 1467.62 526.245 1467.62C506.283 1467.62 490.1 1451.43 490.1 1431.47C490.1 1411.51 506.283 1395.33 526.245 1395.33C546.208 1395.33 562.391 1411.51 562.391 1431.47Z" fill="#FF3D51"/>
<path d="M338.29 1314V1386.29H301.242L266 1351.05L266 1314L338.29 1314Z" fill="#FF3D51"/>
<path d="M302.145 1386.29C282.183 1386.29 266 1370.11 266 1350.15C266 1330.18 282.183 1314 302.145 1314C322.108 1314 338.29 1330.18 338.29 1350.15C338.29 1370.11 322.108 1386.29 302.145 1386.29Z" fill="#FF3D51"/>
</mask>
<g mask="url(#mask0_461_1528)">
<g filter="url(#filter0_f_461_1528)">
<rect x="266" y="1324.03" width="296.512" height="72.5401" fill="#FB122A"/>
</g>
</g>
<mask id="mask1_461_1528" style="mask-type:alpha" maskUnits="userSpaceOnUse" x="266" y="1314" width="297" height="154">
<path d="M450.341 1314L450.341 1386.29L338.29 1386.29V1314L450.341 1314Z" fill="#FF3D51"/>
<path d="M490.1 1416.11H562.391V1431.47L527.149 1467.62H490.1V1416.11Z" fill="#FF3D51"/>
<path d="M562.391 1416.11C562.391 1345.63 516.757 1314 450.341 1314L450.341 1386.29C468.413 1386.29 490.1 1394.87 490.1 1416.11H562.391Z" fill="#FF3D51"/>
<path d="M562.391 1431.47C562.391 1451.43 546.208 1467.62 526.245 1467.62C506.283 1467.62 490.1 1451.43 490.1 1431.47C490.1 1411.51 506.283 1395.33 526.245 1395.33C546.208 1395.33 562.391 1411.51 562.391 1431.47Z" fill="#FF3D51"/>
<path d="M338.29 1314V1386.29H301.242L266 1351.05L266 1314L338.29 1314Z" fill="#FF3D51"/>
<path d="M302.145 1386.29C282.183 1386.29 266 1370.11 266 1350.15C266 1330.18 282.183 1314 302.145 1314C322.108 1314 338.29 1330.18 338.29 1350.15C338.29 1370.11 322.108 1386.29 302.145 1386.29Z" fill="#FF3D51"/>
</mask>
<g mask="url(#mask1_461_1528)">
<rect x="266.001" y="1314" width="296.512" height="72.5401" fill="#FF3D51"/>
</g>
<path d="M490.1 1583.28H562.391V1647.44H490.1V1583.28Z" fill="#760D9D"/>
<path d="M266 1488.4H338.29V1647.44H266V1488.4Z" fill="#760D9D"/>
<path d="M414.242 1434.61L465.359 1485.73L317.117 1633.97L266 1582.86L414.242 1434.61Z" fill="#760D9D"/>
<path d="M562.479 1582.86L511.362 1633.97L363.474 1486.09L414.591 1434.97L562.479 1582.86Z" fill="#760D9D"/>
<path d="M338.29 1613.1H266V1649.25L301.242 1685.39H338.29V1613.1Z" fill="#760D9D"/>
<path d="M266 1649.25C266 1669.21 282.183 1685.39 302.145 1685.39C322.108 1685.39 338.29 1669.21 338.29 1649.25C338.29 1629.28 322.108 1613.1 302.145 1613.1C282.183 1613.1 266 1629.28 266 1649.25Z" fill="#760D9D"/>
<path d="M338.29 1488.4H266L266 1451.35L301.242 1416.11L338.29 1416.11L338.29 1488.4Z" fill="#760D9D"/>
<path d="M266 1452.26C266 1432.29 282.183 1416.11 302.145 1416.11C322.108 1416.11 338.29 1432.29 338.29 1452.26C338.29 1472.22 322.108 1488.4 302.145 1488.4C282.183 1488.4 266 1472.22 266 1452.26Z" fill="#760D9D"/>
<path d="M490.1 1613.1L562.391 1613.1V1650.15L527.149 1685.39H490.1L490.1 1613.1Z" fill="#760D9D"/>
<path d="M562.391 1649.25C562.391 1669.21 546.208 1685.39 526.246 1685.39C506.283 1685.39 490.1 1669.21 490.1 1649.25C490.1 1629.28 506.283 1613.1 526.246 1613.1C546.208 1613.1 562.391 1629.28 562.391 1649.25Z" fill="#760D9D"/>
<mask id="mask2_461_1528" style="mask-type:alpha" maskUnits="userSpaceOnUse" x="266" y="1416" width="297" height="270">
<path d="M490.1 1583.28H562.391V1647.44H490.1V1583.28Z" fill="#760D9D"/>
<path d="M266 1488.4H338.29V1647.44H266V1488.4Z" fill="#760D9D"/>
<path d="M414.242 1434.61L465.359 1485.73L317.117 1633.97L266 1582.86L414.242 1434.61Z" fill="#760D9D"/>
<path d="M562.479 1582.86L511.362 1633.97L363.474 1486.09L414.591 1434.97L562.479 1582.86Z" fill="#760D9D"/>
<path d="M338.29 1613.1H266V1649.25L301.242 1685.39H338.29V1613.1Z" fill="#760D9D"/>
<path d="M266 1649.25C266 1669.21 282.183 1685.39 302.145 1685.39C322.108 1685.39 338.29 1669.21 338.29 1649.25C338.29 1629.28 322.108 1613.1 302.145 1613.1C282.183 1613.1 266 1629.28 266 1649.25Z" fill="#760D9D"/>
<path d="M338.29 1488.4H266L266 1451.35L301.242 1416.11L338.29 1416.11L338.29 1488.4Z" fill="#760D9D"/>
<path d="M266 1452.26C266 1432.29 282.183 1416.11 302.145 1416.11C322.108 1416.11 338.29 1432.29 338.29 1452.26C338.29 1472.22 322.108 1488.4 302.145 1488.4C282.183 1488.4 266 1472.22 266 1452.26Z" fill="#760D9D"/>
<path d="M490.1 1613.1L562.391 1613.1V1650.15L527.149 1685.39H490.1L490.1 1613.1Z" fill="#760D9D"/>
<path d="M562.391 1649.25C562.391 1669.21 546.208 1685.39 526.246 1685.39C506.283 1685.39 490.1 1669.21 490.1 1649.25C490.1 1629.28 506.283 1613.1 526.246 1613.1C546.208 1613.1 562.391 1629.28 562.391 1649.25Z" fill="#760D9D"/>
</mask>
<g mask="url(#mask2_461_1528)">
<g filter="url(#filter1_f_461_1528)">
<path d="M483.414 1576.66H555.704V1640.82H483.414V1576.66Z" fill="#69048E"/>
<path d="M259.313 1576.23L331.604 1503.94L331.604 1645.02H259.314L259.313 1576.23Z" fill="#69048E"/>
<path d="M407.555 1427.99L458.672 1479.11L310.431 1627.35L259.313 1576.23L407.555 1427.99Z" fill="#69048E"/>
<path d="M555.793 1576.23L504.675 1627.35L356.788 1479.46L407.905 1428.35L555.793 1576.23Z" fill="#69048E"/>
<path d="M331.604 1606.48H259.314V1642.62L294.555 1678.77H331.604V1606.48Z" fill="#69048E"/>
<path d="M259.314 1642.62C259.314 1662.59 275.496 1678.77 295.459 1678.77C315.421 1678.77 331.604 1662.59 331.604 1642.62C331.604 1622.66 315.421 1606.48 295.459 1606.48C275.496 1606.48 259.314 1622.66 259.314 1642.62Z" fill="#69048E"/>
<path d="M483.414 1606.48H555.704V1643.53L520.463 1678.77H483.414L483.414 1606.48Z" fill="#69048E"/>
<path d="M555.704 1642.62C555.704 1662.59 539.521 1678.77 519.559 1678.77C499.597 1678.77 483.414 1662.59 483.414 1642.62C483.414 1622.66 499.597 1606.48 519.559 1606.48C539.521 1606.48 555.704 1622.66 555.704 1642.62Z" fill="#69048E"/>
</g>
</g>
<path d="M490.1 1583.34H562.391V1647.5H490.1V1583.34Z" fill="#760D9D"/>
<path d="M266 1582.92L338.29 1510.63L338.29 1651.7H266L266 1582.92Z" fill="#760D9D"/>
<path d="M414.242 1434.68L465.359 1485.79L317.117 1634.04L266 1582.92L414.242 1434.68Z" fill="#760D9D"/>
<path d="M562.479 1582.92L511.362 1634.04L363.474 1486.15L414.591 1435.03L562.479 1582.92Z" fill="#760D9D"/>
<path d="M338.29 1613.16H266V1649.31L301.242 1685.46H338.29V1613.16Z" fill="#760D9D"/>
<path d="M266 1649.31C266 1669.27 282.183 1685.46 302.145 1685.46C322.108 1685.46 338.29 1669.27 338.29 1649.31C338.29 1629.35 322.108 1613.16 302.145 1613.16C282.183 1613.16 266 1629.35 266 1649.31Z" fill="#760D9D"/>
<path d="M490.1 1613.16H562.391V1650.21L527.149 1685.46H490.1L490.1 1613.16Z" fill="#760D9D"/>
<path d="M562.391 1649.31C562.391 1669.27 546.208 1685.46 526.246 1685.46C506.283 1685.46 490.1 1669.27 490.1 1649.31C490.1 1629.35 506.283 1613.16 526.246 1613.16C546.208 1613.16 562.391 1629.35 562.391 1649.31Z" fill="#760D9D"/>
<path d="M835.538 1560.81C835.275 1567.14 832.772 1572.27 828.029 1576.23C823.286 1580.18 817.753 1582.15 811.43 1582.15H681.008C684.169 1597.7 691.415 1609.95 702.745 1618.91C714.074 1627.6 726.853 1631.95 741.081 1631.95C751.884 1631.95 760.315 1631.03 766.375 1629.18C772.435 1627.08 777.178 1624.97 780.603 1622.86C784.291 1620.49 786.795 1618.91 788.112 1618.12C792.855 1615.75 797.334 1614.56 801.549 1614.56C807.082 1614.56 811.825 1616.54 815.777 1620.49C819.729 1624.44 821.706 1629.05 821.706 1634.32C821.706 1641.44 818.017 1647.89 810.639 1653.69C803.262 1659.75 793.382 1664.89 780.998 1669.1C768.614 1673.32 756.099 1675.43 743.452 1675.43C721.32 1675.43 701.954 1670.81 685.355 1661.59C669.019 1652.37 656.372 1639.72 647.414 1623.65C638.456 1607.32 633.977 1589 633.977 1568.72C633.977 1546.06 638.719 1526.16 648.204 1509.04C657.69 1491.91 670.205 1478.87 685.75 1469.91C701.296 1460.69 717.895 1456.08 735.548 1456.08C752.937 1456.08 769.273 1460.82 784.555 1470.31C800.1 1479.79 812.484 1492.57 821.706 1508.64C830.927 1524.72 835.538 1542.11 835.538 1560.81ZM735.548 1499.55C704.984 1499.55 686.936 1513.91 681.403 1542.63H784.95V1539.87C783.896 1528.8 778.495 1519.31 768.746 1511.41C758.997 1503.51 747.931 1499.55 735.548 1499.55Z" fill="#182B40"/>
<path d="M977.057 1626.81C980.746 1626.81 984.04 1628.66 986.938 1632.35C990.1 1635.77 991.681 1640.38 991.681 1646.18C991.681 1653.29 987.728 1659.35 979.824 1664.36C972.183 1669.1 963.488 1671.47 953.74 1671.47C937.404 1671.47 923.571 1668.05 912.242 1661.2C901.175 1654.08 895.642 1639.2 895.642 1616.54V1507.46H877.462C871.139 1507.46 865.869 1505.35 861.654 1501.13C857.438 1496.92 855.33 1491.65 855.33 1485.33C855.33 1479.27 857.438 1474.26 861.654 1470.31C865.869 1466.09 871.139 1463.98 877.462 1463.98H895.642V1438.69C895.642 1431.84 897.882 1426.17 902.361 1421.69C907.104 1416.95 912.9 1414.58 919.751 1414.58C926.338 1414.58 931.871 1416.95 936.35 1421.69C940.829 1426.17 943.069 1431.84 943.069 1438.69V1463.98H971.129C977.453 1463.98 982.722 1466.09 986.938 1470.31C991.154 1474.52 993.261 1479.79 993.261 1486.12C993.261 1492.18 991.154 1497.31 986.938 1501.53C982.722 1505.48 977.453 1507.46 971.129 1507.46H943.069V1614.56C943.069 1620.09 944.518 1624.18 947.416 1626.81C950.314 1629.18 954.266 1630.37 959.273 1630.37C961.38 1630.37 964.279 1629.84 967.967 1628.79C971.129 1627.47 974.159 1626.81 977.057 1626.81Z" fill="#182B40"/>
<path d="M1207.94 1456.08C1214.79 1456.08 1220.45 1458.32 1224.93 1462.8C1229.41 1467.28 1231.65 1473.07 1231.65 1480.19V1647.37C1231.65 1654.22 1229.41 1660.01 1224.93 1664.75C1220.45 1669.23 1214.79 1671.47 1207.94 1671.47C1201.09 1671.47 1195.42 1669.23 1190.94 1664.75C1186.73 1660.28 1184.49 1654.61 1184.22 1647.76C1177.64 1655.4 1168.68 1661.99 1157.35 1667.52C1146.28 1672.79 1134.56 1675.43 1122.17 1675.43C1103.99 1675.43 1087.53 1670.81 1072.77 1661.59C1058.02 1652.11 1046.29 1639.07 1037.6 1622.47C1029.17 1605.87 1024.95 1587.03 1024.95 1565.95C1024.95 1544.87 1029.17 1526.03 1037.6 1509.43C1046.03 1492.57 1057.49 1479.53 1071.98 1470.31C1086.74 1460.82 1102.94 1456.08 1120.59 1456.08C1133.24 1456.08 1145.1 1458.45 1156.16 1463.19C1167.23 1467.67 1176.58 1473.47 1184.22 1480.58V1480.19C1184.22 1473.34 1186.46 1467.67 1190.94 1463.19C1195.42 1458.45 1201.09 1456.08 1207.94 1456.08ZM1128.1 1631.95C1145.23 1631.95 1159.19 1625.76 1170 1613.38C1180.8 1600.73 1186.2 1584.92 1186.2 1565.95C1186.2 1546.98 1180.8 1531.17 1170 1518.52C1159.19 1505.88 1145.23 1499.55 1128.1 1499.55C1111.24 1499.55 1097.41 1505.88 1086.6 1518.52C1075.8 1531.17 1070.4 1546.98 1070.4 1565.95C1070.4 1584.92 1075.67 1600.73 1086.21 1613.38C1097.01 1625.76 1110.98 1631.95 1128.1 1631.95Z" fill="#182B40"/>
<path d="M1396.08 1456.08C1422.95 1456.08 1441.53 1464.12 1451.8 1480.19C1462.08 1496 1467.22 1518 1467.22 1546.19V1647.37C1467.22 1654.22 1464.98 1660.01 1460.5 1664.75C1456.02 1669.23 1450.36 1671.47 1443.51 1671.47C1436.65 1671.47 1430.99 1669.23 1426.51 1664.75C1422.03 1660.01 1419.79 1654.22 1419.79 1647.37V1546.19C1419.79 1531.7 1416.76 1520.37 1410.7 1512.2C1404.64 1503.77 1394.23 1499.55 1379.48 1499.55C1364.2 1499.55 1352.21 1504.03 1343.51 1512.99C1334.82 1521.69 1330.47 1532.75 1330.47 1546.19V1647.37C1330.47 1654.22 1328.23 1660.01 1323.75 1664.75C1319.27 1669.23 1313.61 1671.47 1306.76 1671.47C1299.91 1671.47 1294.24 1669.23 1289.77 1664.75C1285.29 1660.01 1283.05 1654.22 1283.05 1647.37V1484.14C1283.05 1477.29 1285.29 1471.62 1289.77 1467.15C1294.24 1462.4 1299.91 1460.03 1306.76 1460.03C1313.61 1460.03 1319.27 1462.4 1323.75 1467.15C1328.23 1471.62 1330.47 1477.29 1330.47 1484.14V1490.86C1337.59 1481.37 1346.81 1473.21 1358.14 1466.35C1369.73 1459.5 1382.38 1456.08 1396.08 1456.08Z" fill="#182B40"/>
<path d="M1563.14 1647.37C1563.14 1654.22 1560.9 1660.01 1556.42 1664.75C1551.94 1669.23 1546.28 1671.47 1539.43 1671.47C1532.58 1671.47 1526.91 1669.23 1522.43 1664.75C1517.95 1660.01 1515.71 1654.22 1515.71 1647.37V1484.14C1515.71 1477.29 1517.95 1471.62 1522.43 1467.15C1526.91 1462.4 1532.58 1460.03 1539.43 1460.03C1546.28 1460.03 1551.94 1462.4 1556.42 1467.15C1560.9 1471.62 1563.14 1477.29 1563.14 1484.14V1647.37ZM1539.03 1434.34C1530.07 1434.34 1523.75 1432.89 1520.06 1429.99C1516.37 1427.1 1514.53 1421.96 1514.53 1414.58V1407.07C1514.53 1399.69 1516.5 1394.56 1520.46 1391.66C1524.41 1388.76 1530.73 1387.31 1539.43 1387.31C1548.65 1387.31 1555.1 1388.76 1558.79 1391.66C1562.48 1394.56 1564.32 1399.69 1564.32 1407.07V1414.58C1564.32 1422.22 1562.35 1427.49 1558.4 1430.39C1554.71 1433.02 1548.25 1434.34 1539.03 1434.34Z" fill="#182B40"/>
<path d="M1783.01 1456.08C1789.86 1456.08 1795.53 1458.32 1800.01 1462.8C1804.48 1467.28 1806.72 1473.07 1806.72 1480.19V1647.37C1806.72 1654.22 1804.48 1660.01 1800.01 1664.75C1795.53 1669.23 1789.86 1671.47 1783.01 1671.47C1776.16 1671.47 1770.5 1669.23 1766.02 1664.75C1761.8 1660.28 1759.56 1654.61 1759.3 1647.76C1752.71 1655.4 1743.75 1661.99 1732.42 1667.52C1721.36 1672.79 1709.63 1675.43 1697.25 1675.43C1679.07 1675.43 1662.6 1670.81 1647.85 1661.59C1633.09 1652.11 1621.37 1639.07 1612.67 1622.47C1604.24 1605.87 1600.02 1587.03 1600.02 1565.95C1600.02 1544.87 1604.24 1526.03 1612.67 1509.43C1621.1 1492.57 1632.56 1479.53 1647.06 1470.31C1661.81 1460.82 1678.01 1456.08 1695.67 1456.08C1708.31 1456.08 1720.17 1458.45 1731.24 1463.19C1742.3 1467.67 1751.66 1473.47 1759.3 1480.58V1480.19C1759.3 1473.34 1761.54 1467.67 1766.02 1463.19C1770.5 1458.45 1776.16 1456.08 1783.01 1456.08ZM1703.18 1631.95C1720.3 1631.95 1734.27 1625.76 1745.07 1613.38C1755.87 1600.73 1761.27 1584.92 1761.27 1565.95C1761.27 1546.98 1755.87 1531.17 1745.07 1518.52C1734.27 1505.88 1720.3 1499.55 1703.18 1499.55C1686.31 1499.55 1672.48 1505.88 1661.68 1518.52C1650.88 1531.17 1645.47 1546.98 1645.47 1565.95C1645.47 1584.92 1650.74 1600.73 1661.28 1613.38C1672.09 1625.76 1686.05 1631.95 1703.18 1631.95Z" fill="#182B40"/>
<path d="M2073.91 1630.37C2075.49 1632.48 2076.81 1635.11 2077.86 1638.27C2078.92 1641.17 2079.44 1643.94 2079.44 1646.57C2079.44 1653.69 2076.68 1659.62 2071.14 1664.36C2065.87 1669.1 2059.68 1671.47 2052.57 1671.47C2049.14 1671.47 2045.85 1670.68 2042.69 1669.1C2039.53 1667.52 2036.89 1665.28 2034.78 1662.38L1949.02 1549.35L1911.48 1585.32V1647.37C1911.48 1654.48 1909.1 1660.28 1904.36 1664.75C1899.88 1669.23 1893.95 1671.47 1886.58 1671.47C1879.46 1671.47 1873.53 1669.23 1868.79 1664.75C1864.31 1660.01 1862.07 1654.22 1862.07 1647.37V1418.93C1862.07 1412.08 1864.44 1406.41 1869.19 1401.93C1873.93 1397.19 1879.99 1394.82 1887.37 1394.82C1894.48 1394.82 1900.28 1397.06 1904.76 1401.54C1909.24 1406.02 1911.48 1411.81 1911.48 1418.93V1526.43L2037.95 1401.93C2044.01 1395.87 2050.46 1392.84 2057.31 1392.84C2063.37 1392.84 2068.51 1395.35 2072.72 1400.35C2076.94 1405.36 2079.05 1410.63 2079.05 1416.16C2079.05 1421.69 2076.68 1426.83 2071.93 1431.58L1985.78 1513.78L2073.91 1630.37Z" fill="#182B40"/>
<path d="M2413.73 1638.67C2411.36 1635.51 2410.17 1631.56 2410.17 1626.81C2410.17 1619.96 2413.6 1614.17 2420.45 1609.42C2424.14 1607.05 2427.96 1605.87 2431.91 1605.87C2437.44 1605.87 2442.71 1608.37 2447.72 1613.38C2455.62 1621.54 2463.79 1627.6 2472.22 1631.56C2480.92 1635.51 2491.33 1637.48 2503.45 1637.48C2524 1636.69 2534.27 1628.92 2534.27 1614.17C2534.27 1606.53 2530.72 1600.73 2523.6 1596.78C2516.75 1592.82 2505.95 1588.87 2491.19 1584.92C2475.91 1580.7 2463.4 1576.49 2453.65 1572.27C2444.16 1568.06 2435.86 1561.73 2428.75 1553.3C2421.9 1544.61 2418.47 1533.01 2418.47 1518.52C2418.47 1505.88 2422.03 1494.94 2429.15 1485.72C2436.52 1476.24 2446.01 1468.99 2457.6 1463.98C2469.46 1458.71 2481.97 1456.08 2495.15 1456.08C2508.58 1456.08 2522.02 1458.58 2535.46 1463.59C2548.9 1468.59 2559.44 1475.97 2567.08 1485.72C2570.5 1489.94 2572.21 1494.68 2572.21 1499.95C2572.21 1506.01 2569.71 1511.01 2564.71 1514.97C2561.02 1517.86 2556.8 1519.31 2552.06 1519.31C2546.26 1519.31 2541.52 1517.47 2537.83 1513.78C2533.09 1507.98 2526.9 1503.37 2519.26 1499.95C2511.88 1496.52 2503.45 1494.81 2493.96 1494.81C2473.94 1494.81 2463.92 1502.06 2463.92 1516.55C2463.92 1522.34 2465.77 1527.09 2469.46 1530.78C2473.15 1534.2 2477.76 1536.97 2483.29 1539.07C2489.09 1540.92 2497.12 1543.29 2507.4 1546.19C2521.63 1550.14 2533.48 1554.22 2542.97 1558.44C2552.45 1562.66 2560.49 1569.11 2567.08 1577.81C2573.66 1586.5 2576.96 1597.96 2576.96 1612.19C2576.96 1625.1 2573.14 1636.43 2565.5 1646.18C2557.85 1655.66 2547.97 1662.91 2535.85 1667.92C2524 1672.92 2511.75 1675.43 2499.1 1675.43C2481.71 1675.43 2465.51 1672.53 2450.49 1666.73C2435.47 1660.93 2423.22 1651.58 2413.73 1638.67Z" fill="#182B40"/>
<path d="M2718.61 1626.81C2722.3 1626.81 2725.59 1628.66 2728.49 1632.35C2731.65 1635.77 2733.24 1640.38 2733.24 1646.18C2733.24 1653.29 2729.28 1659.35 2721.38 1664.36C2713.74 1669.1 2705.04 1671.47 2695.29 1671.47C2678.96 1671.47 2665.13 1668.05 2653.8 1661.2C2642.73 1654.08 2637.2 1639.2 2637.2 1616.54V1507.46H2619.02C2612.69 1507.46 2607.42 1505.35 2603.21 1501.13C2598.99 1496.92 2596.88 1491.65 2596.88 1485.33C2596.88 1479.27 2598.99 1474.26 2603.21 1470.31C2607.42 1466.09 2612.69 1463.98 2619.02 1463.98H2637.2V1438.69C2637.2 1431.84 2639.44 1426.17 2643.92 1421.69C2648.66 1416.95 2654.46 1414.58 2661.31 1414.58C2667.89 1414.58 2673.43 1416.95 2677.9 1421.69C2682.38 1426.17 2684.62 1431.84 2684.62 1438.69V1463.98H2712.68C2719.01 1463.98 2724.28 1466.09 2728.49 1470.31C2732.71 1474.52 2734.82 1479.79 2734.82 1486.12C2734.82 1492.18 2732.71 1497.31 2728.49 1501.53C2724.28 1505.48 2719.01 1507.46 2712.68 1507.46H2684.62V1614.56C2684.62 1620.09 2686.07 1624.18 2688.97 1626.81C2691.87 1629.18 2695.82 1630.37 2700.83 1630.37C2702.94 1630.37 2705.83 1629.84 2709.52 1628.79C2712.68 1627.47 2715.71 1626.81 2718.61 1626.81Z" fill="#182B40"/>
<circle cx="2240.71" cy="1551.3" r="129.057" fill="#FF3D51"/>
<path fill-rule="evenodd" clip-rule="evenodd" d="M2221.58 1500.3C2233.81 1493.19 2248.84 1493.31 2260.96 1500.62C2272.96 1508.08 2280.25 1521.38 2280.18 1535.7C2279.9 1549.92 2272.08 1563.29 2262.31 1573.62C2256.67 1579.62 2250.36 1584.91 2243.51 1589.41C2242.8 1589.82 2242.03 1590.09 2241.23 1590.22C2240.46 1590.18 2239.7 1589.96 2239.04 1589.55C2228.58 1582.8 2219.41 1574.17 2211.96 1564.1C2205.72 1555.68 2202.18 1545.52 2201.81 1534.99C2201.8 1520.65 2209.35 1507.4 2221.58 1500.3ZM2228.65 1540.93C2230.7 1546 2235.56 1549.31 2240.95 1549.31C2244.48 1549.33 2247.87 1547.92 2250.37 1545.38C2252.87 1542.84 2254.27 1539.39 2254.26 1535.8C2254.28 1530.31 2251.05 1525.35 2246.07 1523.24C2241.1 1521.12 2235.37 1522.27 2231.55 1526.14C2227.74 1530.02 2226.59 1535.85 2228.65 1540.93Z" fill="white"/>
<ellipse opacity="0.4" cx="2241" cy="1601.41" rx="27.99" ry="5.59793" fill="white"/>
<defs>
<filter id="filter0_f_461_1528" x="206" y="1264.03" width="416.512" height="192.54" filterUnits="userSpaceOnUse" color-interpolation-filters="sRGB">
<feFlood flood-opacity="0" result="BackgroundImageFix"/>
<feBlend mode="normal" in="SourceGraphic" in2="BackgroundImageFix" result="shape"/>
<feGaussianBlur stdDeviation="30" result="effect1_foregroundBlur_461_1528"/>
</filter>
<filter id="filter1_f_461_1528" x="189.313" y="1357.99" width="436.479" height="390.778" filterUnits="userSpaceOnUse" color-interpolation-filters="sRGB">
<feFlood flood-opacity="0" result="BackgroundImageFix"/>
<feBlend mode="normal" in="SourceGraphic" in2="BackgroundImageFix" result="shape"/>
<feGaussianBlur stdDeviation="35" result="effect1_foregroundBlur_461_1528"/>
</filter>
</defs>
</svg>
