<svg width="3000" height="3000" viewBox="0 0 3000 3000" fill="none" xmlns="http://www.w3.org/2000/svg">
<path d="M1364.4 2021.83H1472.36V2129.79H1364.4V2021.83Z" fill="#FF3D51"/>
<path d="M1526.34 2021.83H1634.3V2129.79H1526.34V2021.83Z" fill="#FF3D51"/>
<path d="M1364.4 2183.77H1472.36V2291.73H1364.4V2183.77Z" fill="#FF3D51"/>
<path d="M1526.34 2183.77H1634.3V2291.73H1526.34V2183.77Z" fill="#FF3D51"/>
<path d="M1653.58 707L1653.58 1015.46L1175.46 1015.46V707L1653.58 707Z" fill="#FF3D51"/>
<path d="M1823.24 1142.71H2131.7V1208.25L1981.32 1362.49H1823.24V1142.71Z" fill="#FF3D51"/>
<path d="M2131.7 1142.71C2131.7 841.953 1936.98 707 1653.58 707L1653.58 1015.46C1730.7 1015.46 1823.24 1052.09 1823.24 1142.71H2131.7Z" fill="#FF3D51"/>
<path d="M2131.7 1208.25C2131.7 1293.43 2062.65 1362.49 1977.47 1362.49C1892.29 1362.49 1823.24 1293.43 1823.24 1208.25C1823.24 1123.07 1892.29 1054.02 1977.47 1054.02C2062.65 1054.02 2131.7 1123.07 2131.7 1208.25Z" fill="#FF3D51"/>
<path d="M1175.46 707V1015.46H1017.38L867 865.088L867 707L1175.46 707Z" fill="#FF3D51"/>
<path d="M1021.23 1015.46C936.052 1015.46 867 946.412 867 861.232C867 776.052 936.052 707 1021.23 707C1106.41 707 1175.46 776.052 1175.46 861.232C1175.46 946.412 1106.41 1015.46 1021.23 1015.46Z" fill="#FF3D51"/>
<mask id="mask0_461_1711" style="mask-type:alpha" maskUnits="userSpaceOnUse" x="867" y="707" width="1265" height="656">
<path d="M1653.58 707L1653.58 1015.46L1175.46 1015.46V707L1653.58 707Z" fill="#FF3D51"/>
<path d="M1823.24 1142.71H2131.7V1208.25L1981.32 1362.49H1823.24V1142.71Z" fill="#FF3D51"/>
<path d="M2131.7 1142.71C2131.7 841.953 1936.98 707 1653.58 707L1653.58 1015.46C1730.7 1015.46 1823.24 1052.09 1823.24 1142.71H2131.7Z" fill="#FF3D51"/>
<path d="M2131.7 1208.25C2131.7 1293.43 2062.65 1362.49 1977.47 1362.49C1892.29 1362.49 1823.24 1293.43 1823.24 1208.25C1823.24 1123.07 1892.29 1054.02 1977.47 1054.02C2062.65 1054.02 2131.7 1123.07 2131.7 1208.25Z" fill="#FF3D51"/>
<path d="M1175.46 707V1015.46H1017.38L867 865.088L867 707L1175.46 707Z" fill="#FF3D51"/>
<path d="M1021.23 1015.46C936.052 1015.46 867 946.412 867 861.232C867 776.052 936.052 707 1021.23 707C1106.41 707 1175.46 776.052 1175.46 861.232C1175.46 946.412 1106.41 1015.46 1021.23 1015.46Z" fill="#FF3D51"/>
</mask>
<g mask="url(#mask0_461_1711)">
<g filter="url(#filter0_f_461_1711)">
<rect x="867" y="749.792" width="1265.22" height="309.529" fill="#FB122A"/>
</g>
</g>
<mask id="mask1_461_1711" style="mask-type:alpha" maskUnits="userSpaceOnUse" x="867" y="707" width="1265" height="656">
<path d="M1653.58 707L1653.58 1015.46L1175.46 1015.46V707L1653.58 707Z" fill="#FF3D51"/>
<path d="M1823.24 1142.71H2131.7V1208.25L1981.32 1362.49H1823.24V1142.71Z" fill="#FF3D51"/>
<path d="M2131.7 1142.71C2131.7 841.953 1936.98 707 1653.58 707L1653.58 1015.46C1730.7 1015.46 1823.24 1052.09 1823.24 1142.71H2131.7Z" fill="#FF3D51"/>
<path d="M2131.7 1208.25C2131.7 1293.43 2062.65 1362.49 1977.47 1362.49C1892.29 1362.49 1823.24 1293.43 1823.24 1208.25C1823.24 1123.07 1892.29 1054.02 1977.47 1054.02C2062.65 1054.02 2131.7 1123.07 2131.7 1208.25Z" fill="#FF3D51"/>
<path d="M1175.46 707V1015.46H1017.38L867 865.088L867 707L1175.46 707Z" fill="#FF3D51"/>
<path d="M1021.23 1015.46C936.052 1015.46 867 946.412 867 861.232C867 776.052 936.052 707 1021.23 707C1106.41 707 1175.46 776.052 1175.46 861.232C1175.46 946.412 1106.41 1015.46 1021.23 1015.46Z" fill="#FF3D51"/>
</mask>
<g mask="url(#mask1_461_1711)">
<rect x="867" y="707" width="1265.22" height="309.529" fill="#FF3D51"/>
</g>
<path d="M1823.24 1856.03H2131.7V2129.79H1823.24V1856.03Z" fill="#760D9D"/>
<path d="M867 1451.17H1175.46V2129.79H867V1451.17Z" fill="#760D9D"/>
<path d="M1499.55 1221.66L1717.67 1439.78L1085.12 2072.33L867 1854.21L1499.55 1221.66Z" fill="#760D9D"/>
<path d="M2132.08 1854.21L1913.96 2072.33L1282.92 1441.29L1501.04 1223.17L2132.08 1854.21Z" fill="#760D9D"/>
<path d="M1175.46 1983.27H867V2137.5L1017.38 2291.73H1175.46V1983.27Z" fill="#760D9D"/>
<path d="M867 2137.5C867 2222.68 936.052 2291.73 1021.23 2291.73C1106.41 2291.73 1175.46 2222.68 1175.46 2137.5C1175.46 2052.32 1106.41 1983.27 1021.23 1983.27C936.052 1983.27 867 2052.32 867 2137.5Z" fill="#760D9D"/>
<path d="M1175.46 1451.17H867L867 1293.08L1017.38 1142.71L1175.46 1142.71L1175.46 1451.17Z" fill="#760D9D"/>
<path d="M867 1296.94C867 1211.76 936.052 1142.71 1021.23 1142.71C1106.41 1142.71 1175.46 1211.76 1175.46 1296.94C1175.46 1382.12 1106.41 1451.17 1021.23 1451.17C936.052 1451.17 867 1382.12 867 1296.94Z" fill="#760D9D"/>
<path d="M1823.24 1983.27L2131.7 1983.27V2141.36L1981.33 2291.73H1823.24L1823.24 1983.27Z" fill="#760D9D"/>
<path d="M2131.7 2137.5C2131.7 2222.68 2062.65 2291.73 1977.47 2291.73C1892.29 2291.73 1823.24 2222.68 1823.24 2137.5C1823.24 2052.32 1892.29 1983.27 1977.47 1983.27C2062.65 1983.27 2131.7 2052.32 2131.7 2137.5Z" fill="#760D9D"/>
<mask id="mask2_461_1711" style="mask-type:alpha" maskUnits="userSpaceOnUse" x="867" y="1142" width="1266" height="1150">
<path d="M1823.24 1856.03H2131.7V2129.79H1823.24V1856.03Z" fill="#760D9D"/>
<path d="M867 1451.17H1175.46V2129.79H867V1451.17Z" fill="#760D9D"/>
<path d="M1499.55 1221.66L1717.67 1439.78L1085.12 2072.33L867 1854.21L1499.55 1221.66Z" fill="#760D9D"/>
<path d="M2132.08 1854.21L1913.96 2072.33L1282.92 1441.29L1501.04 1223.17L2132.08 1854.21Z" fill="#760D9D"/>
<path d="M1175.46 1983.27H867V2137.5L1017.38 2291.73H1175.46V1983.27Z" fill="#760D9D"/>
<path d="M867 2137.5C867 2222.68 936.052 2291.73 1021.23 2291.73C1106.41 2291.73 1175.46 2222.68 1175.46 2137.5C1175.46 2052.32 1106.41 1983.27 1021.23 1983.27C936.052 1983.27 867 2052.32 867 2137.5Z" fill="#760D9D"/>
<path d="M1175.46 1451.17H867L867 1293.08L1017.38 1142.71L1175.46 1142.71L1175.46 1451.17Z" fill="#760D9D"/>
<path d="M867 1296.94C867 1211.76 936.052 1142.71 1021.23 1142.71C1106.41 1142.71 1175.46 1211.76 1175.46 1296.94C1175.46 1382.12 1106.41 1451.17 1021.23 1451.17C936.052 1451.17 867 1382.12 867 1296.94Z" fill="#760D9D"/>
<path d="M1823.24 1983.27L2131.7 1983.27V2141.36L1981.33 2291.73H1823.24L1823.24 1983.27Z" fill="#760D9D"/>
<path d="M2131.7 2137.5C2131.7 2222.68 2062.65 2291.73 1977.47 2291.73C1892.29 2291.73 1823.24 2222.68 1823.24 2137.5C1823.24 2052.32 1892.29 1983.27 1977.47 1983.27C2062.65 1983.27 2131.7 2052.32 2131.7 2137.5Z" fill="#760D9D"/>
</mask>
<g mask="url(#mask2_461_1711)">
<g filter="url(#filter1_f_461_1711)">
<path d="M1794.71 1827.77H2103.17V2101.53H1794.71V1827.77Z" fill="#69048E"/>
<path d="M838.472 1825.95L1146.94 1517.49L1146.94 2119.44H838.472L838.472 1825.95Z" fill="#69048E"/>
<path d="M1471.02 1193.4L1689.14 1411.52L1056.59 2044.07L838.472 1825.95L1471.02 1193.4Z" fill="#69048E"/>
<path d="M2103.55 1825.95L1885.43 2044.07L1254.4 1413.03L1472.51 1194.92L2103.55 1825.95Z" fill="#69048E"/>
<path d="M1146.94 1955.01H838.472V2109.24L988.848 2263.47H1146.94V1955.01Z" fill="#69048E"/>
<path d="M838.472 2109.24C838.472 2194.42 907.524 2263.47 992.704 2263.47C1077.88 2263.47 1146.94 2194.42 1146.94 2109.24C1146.94 2024.06 1077.88 1955.01 992.704 1955.01C907.524 1955.01 838.472 2024.06 838.472 2109.24Z" fill="#69048E"/>
<path d="M1794.71 1955.01H2103.17V2113.1L1952.8 2263.47H1794.71L1794.71 1955.01Z" fill="#69048E"/>
<path d="M2103.17 2109.24C2103.17 2194.42 2034.12 2263.47 1948.94 2263.47C1863.76 2263.47 1794.71 2194.42 1794.71 2109.24C1794.71 2024.06 1863.76 1955.01 1948.94 1955.01C2034.12 1955.01 2103.17 2024.06 2103.17 2109.24Z" fill="#69048E"/>
</g>
</g>
<path d="M1823.24 1856.3H2131.7V2130.06H1823.24V1856.3Z" fill="#760D9D"/>
<path d="M867 1854.48L1175.46 1546.02L1175.46 2147.97H867L867 1854.48Z" fill="#760D9D"/>
<path d="M1499.55 1221.93L1717.67 1440.05L1085.12 2072.6L867 1854.48L1499.55 1221.93Z" fill="#760D9D"/>
<path d="M2132.08 1854.48L1913.96 2072.6L1282.92 1441.56L1501.04 1223.44L2132.08 1854.48Z" fill="#760D9D"/>
<path d="M1175.46 1983.54H867V2137.77L1017.38 2292H1175.46V1983.54Z" fill="#760D9D"/>
<path d="M867 2137.77C867 2222.95 936.052 2292 1021.23 2292C1106.41 2292 1175.46 2222.95 1175.46 2137.77C1175.46 2052.59 1106.41 1983.54 1021.23 1983.54C936.052 1983.54 867 2052.59 867 2137.77Z" fill="#760D9D"/>
<path d="M1823.24 1983.54H2131.7V2141.63L1981.33 2292H1823.24L1823.24 1983.54Z" fill="#760D9D"/>
<path d="M2131.7 2137.77C2131.7 2222.95 2062.65 2292 1977.47 2292C1892.29 2292 1823.24 2222.95 1823.24 2137.77C1823.24 2052.59 1892.29 1983.54 1977.47 1983.54C2062.65 1983.54 2131.7 2052.59 2131.7 2137.77Z" fill="#760D9D"/>
<defs>
<filter id="filter0_f_461_1711" x="807" y="689.792" width="1385.22" height="429.529" filterUnits="userSpaceOnUse" color-interpolation-filters="sRGB">
<feFlood flood-opacity="0" result="BackgroundImageFix"/>
<feBlend mode="normal" in="SourceGraphic" in2="BackgroundImageFix" result="shape"/>
<feGaussianBlur stdDeviation="30" result="effect1_foregroundBlur_461_1711"/>
</filter>
<filter id="filter1_f_461_1711" x="768.472" y="1123.4" width="1405.08" height="1210.07" filterUnits="userSpaceOnUse" color-interpolation-filters="sRGB">
<feFlood flood-opacity="0" result="BackgroundImageFix"/>
<feBlend mode="normal" in="SourceGraphic" in2="BackgroundImageFix" result="shape"/>
<feGaussianBlur stdDeviation="35" result="effect1_foregroundBlur_461_1711"/>
</filter>
</defs>
</svg>
